<?xml version="1.0" encoding="UTF-8"?>
<svg version="1.1" xmlns="http://www.w3.org/2000/svg" width="256" height="256">
<path d="M0 0 C84.48 0 168.96 0 256 0 C256 84.48 256 168.96 256 256 C171.52 256 87.04 256 0 256 C0 171.52 0 87.04 0 0 Z " fill="#FEFEFE" transform="translate(0,0)"/>
<path d="M0 0 C1.52173828 0.40025391 1.52173828 0.40025391 3.07421875 0.80859375 C14.55581775 4.25767222 29.39303899 10.39303899 38 19 C38.41625977 21.65893555 38.41625977 21.65893555 38 25 C36.17898816 27.41818804 34.48014922 29.36244042 32.33984375 31.45703125 C31.75715225 32.0454631 31.17446075 32.63389496 30.57411194 33.24015808 C29.33973559 34.47861028 28.09777776 35.70954587 26.84887695 36.93334961 C24.94709498 38.8030668 23.07936891 40.70253564 21.21289062 42.60742188 C20.00712683 43.80921957 18.79950246 45.00915403 17.58984375 46.20703125 C17.03538071 46.77363968 16.48091766 47.34024811 15.90965271 47.92402649 C12.13289534 51.56851442 9.44197197 52.8620472 4 53 C1.48046875 52.109375 1.48046875 52.109375 -0.8125 50.75 C-9.10691494 45.89612551 -17.37675917 44.47919367 -26.875 44.625 C-27.84244141 44.63587646 -28.80988281 44.64675293 -29.80664062 44.65795898 C-46.68997089 45.03405873 -61.42534317 51.13114701 -73.375 63.11328125 C-86.35294404 77.38515721 -89.69386619 92.97921669 -89.140625 111.58886719 C-88.68769846 119.35467024 -86.07976944 126.00523801 -82.87890625 132.984375 C-81.46480829 136.22737298 -80.80553744 138.43485311 -81 142 C-82.19799805 143.71875 -82.19799805 143.71875 -83.88671875 145.5625 C-84.52569092 146.2625415 -85.16466309 146.96258301 -85.82299805 147.68383789 C-86.54140869 148.44817139 -87.25981934 149.21250488 -88 150 C-88.77190674 150.82685303 -89.54381348 151.65370605 -90.33911133 152.50561523 C-92.86557412 155.17721684 -95.42796064 157.8097971 -98 160.4375 C-98.86367187 161.34693359 -99.72734375 162.25636719 -100.6171875 163.19335938 C-107.77447331 170.47573452 -107.77447331 170.47573452 -111.875 171.41015625 C-115 171 -115 171 -117.1875 168.98828125 C-117.785625 168.00214844 -118.38375 167.01601562 -119 166 C-119.66 164.92105469 -120.32 163.84210938 -121 162.73046875 C-121.67115107 161.55202186 -122.33776759 160.37098176 -123 159.1875 C-123.33 158.60935547 -123.66 158.03121094 -124 157.43554688 C-125.01939668 155.6336836 -126.01352473 153.82007922 -127 152 C-127.34522705 151.37512695 -127.6904541 150.75025391 -128.04614258 150.10644531 C-130.74006722 145.02462282 -132.31254548 139.94555527 -133.6875 134.375 C-133.89955078 133.55515625 -134.11160156 132.7353125 -134.33007812 131.890625 C-141.1668326 105.06121626 -137.64194528 75.78802462 -123.7421875 51.76953125 C-107.00216794 25.15815486 -84.06823377 7.39845248 -53.44140625 -0.97265625 C-36.10530799 -4.85117979 -17.16810586 -4.53237995 0 0 Z " fill="#5163FD" transform="translate(156,23)"/>
<path d="M0 0 C2.38671875 0.98828125 2.38671875 0.98828125 4.6875 2.3125 C19.73810808 10.14950302 36.54564875 9.85033648 52.59765625 5.15625 C55.4380129 4.19098528 57.98148073 3.14921625 60.625 1.75 C64.38287221 -0.19852633 65.85010074 -0.61954819 70 0 C72.54555088 1.66412771 74.58872064 3.74752023 76.7109375 5.9140625 C77.63043686 6.82495132 77.63043686 6.82495132 78.56851196 7.75424194 C79.85823846 9.03989244 81.14044648 10.3331237 82.41552734 11.63330078 C84.36859646 13.61849115 86.35158891 15.56965401 88.33984375 17.51953125 C89.59046996 18.77412242 90.83923358 20.03057362 92.0859375 21.2890625 C92.67958099 21.87056061 93.27322449 22.45205872 93.88485718 23.05117798 C96.64202426 25.90469533 97.89758047 27.27831819 98.46899414 31.3046875 C98 34 98 34 96.41015625 35.8359375 C71.52388101 52.15073358 43.50488096 59.33649952 13.8125 55.4375 C-1.4805553 52.19420109 -15.90227946 46.51666684 -29 38 C-29.969375 37.37480469 -30.93875 36.74960938 -31.9375 36.10546875 C-34 34 -34 34 -34.49853516 31.2878418 C-33.78629153 26.59059162 -31.40048481 24.5357973 -28.0859375 21.2890625 C-27.17504868 20.36956314 -27.17504868 20.36956314 -26.24575806 19.43148804 C-24.96010756 18.14176154 -23.6668763 16.85955352 -22.36669922 15.58447266 C-20.38150885 13.63140354 -18.43034599 11.64841109 -16.48046875 9.66015625 C-15.22587758 8.40953004 -13.96942638 7.16076642 -12.7109375 5.9140625 C-12.12943939 5.32041901 -11.54794128 4.72677551 -10.94882202 4.11514282 C-7.34788799 0.63579592 -5.24265637 -0.8285282 0 0 Z " fill="#200455" transform="translate(96,181)"/>
<path d="M0 0 C6.45144007 4.74825989 11.40712185 10.96066706 13.44140625 18.796875 C14.59960523 28.19380899 13.26900034 36.81767476 8.12109375 44.859375 C3.15336788 51.15725697 -3.66177896 55.39582722 -11.55859375 56.796875 C-20.82545068 57.63417343 -27.76565231 57.06199852 -35.55859375 51.796875 C-36.21601562 51.36246094 -36.8734375 50.92804688 -37.55078125 50.48046875 C-43.46492041 46.02582745 -47.22147924 39.06140437 -48.55859375 31.796875 C-49.22259535 20.84856952 -47.91558168 13.11788204 -40.55859375 4.796875 C-29.60583393 -6.59194317 -13.44193962 -8.21777968 0 0 Z " fill="#200455" transform="translate(145.55859375,102.203125)"/>
<path d="M0 0 C0.33 0.66 0.66 1.32 1 2 C-0.25 4.171875 -0.25 4.171875 -2 6.75 C-4.6031994 10.83101044 -4.6031994 10.83101044 -4.875 15.625 C-4.441875 16.800625 -4.441875 16.800625 -4 18 C-4.66 18 -5.32 18 -6 18 C-6 17.34 -6 16.68 -6 16 C-6.66 16 -7.32 16 -8 16 C-8.103125 16.598125 -8.20625 17.19625 -8.3125 17.8125 C-9 20 -9 20 -10.4375 21.359375 C-12.28643109 23.30075264 -12.8769957 24.89448915 -13.6875 27.4375 C-14.06455078 28.58025391 -14.06455078 28.58025391 -14.44921875 29.74609375 C-15.15825499 32.26090634 -15.15825499 32.26090634 -15 36 C-15.97660956 37.02285569 -16.97900645 38.02144383 -18 39 C-23.75273458 52.2952088 -24.03487113 70.64106782 -22.0625 84.75 C-21.80146484 86.66039062 -21.80146484 86.66039062 -21.53515625 88.609375 C-21.13559309 91.14091383 -20.64118491 93.5276834 -20 96 C-20 96.66 -20 97.32 -20 98 C-19.34 98 -18.68 98 -18 98 C-17.9175 99.051875 -17.835 100.10375 -17.75 101.1875 C-17.32876314 104.97946366 -17.32876314 104.97946366 -15.125 107.1875 C-11.80881456 111.57656897 -11.11913034 116.68413088 -10 122 C-8.02 121.505 -8.02 121.505 -6 121 C-6 123.64 -6 126.28 -6 129 C-5.34 129 -4.68 129 -4 129 C-4 129.66 -4 130.32 -4 131 C-3.05125 131 -2.1025 131 -1.125 131 C1.25 131 3.625 131 6 131 C6 130.01 6 129.02 6 128 C6.66 128 7.32 128 8 128 C8.495 126.515 8.495 126.515 9 125 C9.66 125 10.32 125 11 125 C11 124.01 11 123.02 11 122 C11.66 122 12.32 122 13 122 C13.495 120.515 13.495 120.515 14 119 C14.99 119 15.98 119 17 119 C17.66 117.68 18.32 116.36 19 115 C19.99 115 20.98 115 22 115 C22.33 113.35 22.66 111.7 23 110 C23.99 110.33 24.98 110.66 26 111 C26 110.34 26 109.68 26 109 C27.5 107.375 27.5 107.375 29 106 C27.73025028 101.58477891 27.73025028 101.58477891 25 98 C24.01 98.495 24.01 98.495 23 99 C23.226875 98.154375 23.45375 97.30875 23.6875 96.4375 C24.09143364 91.99422997 22.97302401 89.94604801 21 86 C20.34 86 19.68 86 19 86 C18.91216525 82.0001407 18.85932898 78.00053296 18.8125 74 C18.78736328 72.87464844 18.76222656 71.74929687 18.73632812 70.58984375 C18.67760611 63.89553451 19.27876768 59.10765477 22 53 C22.78021738 50.15003928 23.4750367 47.29285108 24.15625 44.41796875 C25.04473338 41.87180574 25.95412278 40.71058068 28 39 C28.99 39.495 28.99 39.495 30 40 C29.401875 41.093125 28.80375 42.18625 28.1875 43.3125 C21.4698797 57.10633243 20.71893123 73.74912464 25.0703125 88.4609375 C26.2619249 91.71534111 27.6771882 94.83609467 29.12109375 97.984375 C30.53519171 101.22737298 31.19446256 103.43485311 31 107 C29.80200195 108.71875 29.80200195 108.71875 28.11328125 110.5625 C27.47430908 111.2625415 26.83533691 111.96258301 26.17700195 112.68383789 C25.45859131 113.44817139 24.74018066 114.21250488 24 115 C23.22809326 115.82685303 22.45618652 116.65370605 21.66088867 117.50561523 C19.13442588 120.17721684 16.57203936 122.8097971 14 125.4375 C13.13632812 126.34693359 12.27265625 127.25636719 11.3828125 128.19335938 C4.22552669 135.47573452 4.22552669 135.47573452 0.125 136.41015625 C-3 136 -3 136 -5.1875 133.98828125 C-5.785625 133.00214844 -6.38375 132.01601562 -7 131 C-7.66 129.92105469 -8.32 128.84210938 -9 127.73046875 C-9.67115107 126.55202186 -10.33776759 125.37098176 -11 124.1875 C-11.33 123.60935547 -11.66 123.03121094 -12 122.43554688 C-13.01939668 120.6336836 -14.01352473 118.82007922 -15 117 C-15.34522705 116.37512695 -15.6904541 115.75025391 -16.04614258 115.10644531 C-18.74006722 110.02462282 -20.31254548 104.94555527 -21.6875 99.375 C-21.89955078 98.55515625 -22.11160156 97.7353125 -22.33007812 96.890625 C-29.18358948 69.9954574 -25.55926581 40.9326714 -11.7890625 16.81640625 C-8.11482533 11.03229053 -4.07001547 5.50980355 0 0 Z " fill="#9851E9" transform="translate(44,58)"/>
<path d="M0 0 C1.52173828 0.40025391 1.52173828 0.40025391 3.07421875 0.80859375 C14.55581775 4.25767222 29.39303899 10.39303899 38 19 C38.41796875 21.67041016 38.41796875 21.67041016 38 25 C36.16417684 27.35975387 34.46075626 29.24215758 32.3125 31.2734375 C31.73540283 31.84204498 31.15830566 32.41065247 30.5637207 32.99649048 C28.72277877 34.80392737 26.86206592 36.58935857 25 38.375 C23.7460322 39.5988648 22.49341093 40.82411087 21.2421875 42.05078125 C18.17683504 45.05008794 15.09358313 48.02983109 12 51 C11.375 49.1875 11.375 49.1875 11 47 C11.66 46.01 12.32 45.02 13 44 C13.66 43.87625 14.32 43.7525 15 43.625 C15.66 43.41875 16.32 43.2125 17 43 C18.10636395 40.60931266 18.10636395 40.60931266 19 38 C20 37 21 36 22 35 C22 34.01 22 33.02 22 32 C22.78375 31.71125 23.5675 31.4225 24.375 31.125 C27.94517778 29.59492381 29.93538244 27.24439902 32 24 C31.505 22.515 31.505 22.515 31 21 C28.04215769 19.77606525 26.00272755 20.03483757 23 21 C22.505 19.515 22.505 19.515 22 18 C22.804375 17.71125 23.60875 17.4225 24.4375 17.125 C27.1326468 16.26737432 27.1326468 16.26737432 28 14 C26.02 14 24.04 14 22 14 C21.505 12.515 21.505 12.515 21 11 C19.35 11 17.7 11 16 11 C16 10.34 16 9.68 16 9 C14.35 9 12.7 9 11 9 C11 8.01 11 7.02 11 6 C8.69 6 6.38 6 4 6 C4.33 5.01 4.66 4.02 5 3 C1.87525373 4.63473516 1.87525373 4.63473516 1.3125 7.125 C1.209375 7.74375 1.10625 8.3625 1 9 C-1.31 9 -3.62 9 -6 9 C-5.67 8.01 -5.34 7.02 -5 6 C-5.495 5.01 -5.495 5.01 -6 4 C-5.34 3.67 -4.68 3.34 -4 3 C-13.81243402 -3.54162268 -33.55510942 -0.09168325 -45 0 C-45.33 2.31 -45.66 4.62 -46 7 C-50.86896303 6.40380045 -55.32790951 5.43023178 -60 4 C-60 4.66 -60 5.32 -60 6 C-61.010625 6.103125 -62.02125 6.20625 -63.0625 6.3125 C-67.13976299 7.02440306 -70.25609082 8.26175645 -74 10 C-75.31063554 10.56683064 -76.62309249 11.12947186 -77.9375 11.6875 C-79.4534375 12.3371875 -79.4534375 12.3371875 -81 13 C-81.66 12.34 -82.32 11.68 -83 11 C-57.16610266 -2.76861562 -28.60815054 -7.55255174 0 0 Z " fill="#3CB6ED" transform="translate(156,23)"/>
<path d="M0 0 C1.96484375 1.9375 1.96484375 1.9375 3 4 C2.1875 6.75 2.1875 6.75 1 9 C-1.31 9 -3.62 9 -6 9 C-5.67 8.01 -5.34 7.02 -5 6 C-5.495 5.01 -5.495 5.01 -6 4 C-5.34 3.67 -4.68 3.34 -4 3 C-13.81243402 -3.54162268 -33.55510942 -0.09168325 -45 0 C-45.33 2.31 -45.66 4.62 -46 7 C-50.86896303 6.40380045 -55.32790951 5.43023178 -60 4 C-60 4.66 -60 5.32 -60 6 C-61.010625 6.103125 -62.02125 6.20625 -63.0625 6.3125 C-67.13976299 7.02440306 -70.25609082 8.26175645 -74 10 C-75.31063554 10.56683064 -76.62309249 11.12947186 -77.9375 11.6875 C-79.4534375 12.3371875 -79.4534375 12.3371875 -81 13 C-81.66 12.34 -82.32 11.68 -83 11 C-58.94432459 -1.82088195 -26.8025767 -9.62880771 0 0 Z " fill="#4394ED" transform="translate(156,23)"/>
<path d="M0 0 C0.66 0.33 1.32 0.66 2 1 C1.401875 2.093125 0.80375 3.18625 0.1875 4.3125 C-6.5301203 18.10633243 -7.28106877 34.74912464 -2.9296875 49.4609375 C-1.7380751 52.71534111 -0.3228118 55.83609467 1.12109375 58.984375 C2.53519171 62.22737298 3.19446256 64.43485311 3 68 C1.05301089 71.06309752 -1.40669285 73.47819948 -4 76 C-5.11375 77.13115234 -5.11375 77.13115234 -6.25 78.28515625 C-8.1495912 80.20849234 -10.06607826 82.11128682 -12 84 C-12.66 82.68 -13.32 81.36 -14 80 C-13.01 80 -12.02 80 -11 80 C-10.34 78.68 -9.68 77.36 -9 76 C-8.01 76 -7.02 76 -6 76 C-5.67 74.35 -5.34 72.7 -5 71 C-4.01 71.33 -3.02 71.66 -2 72 C-2 71.34 -2 70.68 -2 70 C-0.5 68.375 -0.5 68.375 1 67 C-0.26974972 62.58477891 -0.26974972 62.58477891 -3 59 C-3.99 59.495 -3.99 59.495 -5 60 C-4.773125 59.154375 -4.54625 58.30875 -4.3125 57.4375 C-3.90856636 52.99422997 -5.02697599 50.94604801 -7 47 C-7.66 47 -8.32 47 -9 47 C-9.08783475 43.0001407 -9.14067102 39.00053296 -9.1875 35 C-9.22520508 33.31197266 -9.22520508 33.31197266 -9.26367188 31.58984375 C-9.32239389 24.89553451 -8.72123232 20.10765477 -6 14 C-5.21978262 11.15003928 -4.5249633 8.29285108 -3.84375 5.41796875 C-2.95526662 2.87180574 -2.04587722 1.71058068 0 0 Z " fill="#7C54E3" transform="translate(72,97)"/>
<path d="M0 0 C0.33 0.66 0.66 1.32 1 2 C-0.25 4.171875 -0.25 4.171875 -2 6.75 C-4.6031994 10.83101044 -4.6031994 10.83101044 -4.875 15.625 C-4.441875 16.800625 -4.441875 16.800625 -4 18 C-4.66 18 -5.32 18 -6 18 C-6 17.34 -6 16.68 -6 16 C-6.66 16 -7.32 16 -8 16 C-8.1546875 16.8971875 -8.1546875 16.8971875 -8.3125 17.8125 C-9 20 -9 20 -10.4375 21.359375 C-12.28643109 23.30075264 -12.8769957 24.89448915 -13.6875 27.4375 C-14.06455078 28.58025391 -14.06455078 28.58025391 -14.44921875 29.74609375 C-15.15825499 32.26090634 -15.15825499 32.26090634 -15 36 C-15.98206086 37.01762295 -16.98398341 38.01627733 -18 39 C-21.30242571 47.16066086 -22.00502726 56.32617886 -23 65 C-23.33 65 -23.66 65 -24 65 C-25.40051944 40.10187656 -14.74878971 19.34581507 0 0 Z " fill="#5C45EB" transform="translate(44,58)"/>
<path d="M0 0 C9.65905184 0.92875498 17.62737385 5.44606339 26 10 C27.35351562 10.72316406 27.35351562 10.72316406 28.734375 11.4609375 C31.88123064 13.26406281 33.77384568 14.57596065 35.5 17.8125 C35.7475 18.8953125 35.7475 18.8953125 36 20 C35.34 20 34.68 20 34 20 C34 20.66 34 21.32 34 22 C33.34 22 32.68 22 32 22 C31.67 21.34 31.34 20.68 31 20 C28.00463263 18.86382617 26.02121511 19.02889514 23 20 C22.67 19.01 22.34 18.02 22 17 C22.804375 16.71125 23.60875 16.4225 24.4375 16.125 C27.1326468 15.26737432 27.1326468 15.26737432 28 13 C26.02 13 24.04 13 22 13 C21.67 12.01 21.34 11.02 21 10 C19.35 10 17.7 10 16 10 C16 9.34 16 8.68 16 8 C14.35 8 12.7 8 11 8 C11 7.01 11 6.02 11 5 C8.69 5 6.38 5 4 5 C4.33 4.01 4.66 3.02 5 2 C3.35 2 1.7 2 0 2 C0 1.34 0 0.68 0 0 Z " fill="#3DB6EB" transform="translate(156,24)"/>
<path d="M0 0 C30.6586475 -0.71512395 30.6586475 -0.71512395 41 3 C42.96484375 4.9375 42.96484375 4.9375 44 7 C43.1875 9.75 43.1875 9.75 42 12 C39.69 12 37.38 12 35 12 C35.33 11.01 35.66 10.02 36 9 C35.505 8.01 35.505 8.01 35 7 C35.66 6.67 36.32 6.34 37 6 C33.51856576 3.67904384 31.11096446 3.50485528 27 3 C26.37834961 2.83250244 25.75669922 2.66500488 25.11621094 2.49243164 C22.57946173 1.90214286 20.18061405 1.78480166 17.578125 1.68359375 C16.04091797 1.62075195 16.04091797 1.62075195 14.47265625 1.55664062 C13.40917969 1.51732422 12.34570312 1.47800781 11.25 1.4375 C10.17105469 1.39431641 9.09210938 1.35113281 7.98046875 1.30664062 C5.32043572 1.20071011 2.66031188 1.09863579 0 1 C0 0.67 0 0.34 0 0 Z " fill="#49B2E8" transform="translate(115,20)"/>
<path d="M0 0 C1.99897128 0.33944795 3.99875639 0.67421616 6 1 C6 1.66 6 2.32 6 3 C4.15148437 3.05607422 4.15148437 3.05607422 2.265625 3.11328125 C-7.16392658 3.46337183 -15.94401662 4.11386546 -25 7 C-26.2375 7.391875 -27.475 7.78375 -28.75 8.1875 C-29.4925 8.455625 -30.235 8.72375 -31 9 C-30.67 7.35 -30.34 5.7 -30 4 C-28.4221875 3.7834375 -28.4221875 3.7834375 -26.8125 3.5625 C-22.75352668 2.96363508 -18.82405502 2.20601375 -14.84375 1.2109375 C-13.7403125 0.93507813 -12.636875 0.65921875 -11.5 0.375 C-10.3965625 0.09398438 -9.293125 -0.18703125 -8.15625 -0.4765625 C-4.98525886 -1.00244469 -3.06674459 -0.82786484 0 0 Z " fill="#5993EB" transform="translate(131,64)"/>
<path d="M0 0 C0.33 0.99 0.66 1.98 1 3 C-0.28965176 4.37562854 -1.62689293 5.70766393 -3 7 C-3.66 7 -4.32 7 -5 7 C-5 7.99 -5 8.98 -5 10 C-5.66 10 -6.32 10 -7 10 C-7.33 10.99 -7.66 11.98 -8 13 C-8.99 13 -9.98 13 -11 13 C-11.226875 13.763125 -11.45375 14.52625 -11.6875 15.3125 C-13.26731682 18.54736301 -14.83282717 19.41641358 -18 21 C-18.33 20.34 -18.66 19.68 -19 19 C-13.98451455 11.97499886 -7.876008 3.938004 0 0 Z " fill="#F1F6F7" transform="translate(94,76)"/>
<path d="M0 0 C0.7734375 0.433125 0.7734375 0.433125 1.5625 0.875 C4.62356725 2.28780027 7.74944918 3.1248517 11 4 C10.67 5.65 10.34 7.3 10 9 C8.453125 9.71484375 8.453125 9.71484375 6 10 C3.46142115 8.94608774 1.15504473 7.86034426 -1.25 6.5625 C-1.8996875 6.22412109 -2.549375 5.88574219 -3.21875 5.53710938 C-4.81814494 4.70213113 -6.40985859 3.85246886 -8 3 C-8 2.67 -8 2.34 -8 2 C-7.05125 2.04125 -6.1025 2.0825 -5.125 2.125 C-1.89755144 2.34973818 -1.89755144 2.34973818 0 0 Z " fill="#EAFAF9" transform="translate(176,25)"/>
<path d="M0 0 C0.33 0.66 0.66 1.32 1 2 C2.65 2 4.3 2 6 2 C6 2.66 6 3.32 6 4 C7.32 4 8.64 4 10 4 C9.67 5.32 9.34 6.64 9 8 C9.598125 7.79375 10.19625 7.5875 10.8125 7.375 C13 7 13 7 16 9 C9.97045444 10.70400201 7.02957319 9.31728767 1.64453125 6.34765625 C-2.39229436 4.29048515 -6.63113973 3.14334003 -11 2 C-11 1.67 -11 1.34 -11 1 C-7.26513121 0.4254048 -3.78706732 0 0 0 Z " fill="#519CEE" transform="translate(151,66)"/>
<path d="M0 0 C0.33 0 0.66 0 1 0 C1.01981934 0.5576001 1.03963867 1.1152002 1.06005859 1.68969727 C1.68128476 21.00654682 1.68128476 21.00654682 5 40 C5 40.66 5 41.32 5 42 C5.66 42 6.32 42 7 42 C6.505 44.475 6.505 44.475 6 47 C3.60383408 44.60383408 3.28663841 43.0042896 2.4375 39.75 C2.18871094 38.81671875 1.93992187 37.8834375 1.68359375 36.921875 C0.44987292 31.64859969 -0.12251895 26.70913004 -0.09765625 21.2890625 C-0.09443359 20.04511719 -0.09121094 18.80117187 -0.08789062 17.51953125 C-0.07951172 16.23433594 -0.07113281 14.94914063 -0.0625 13.625 C-0.05798828 12.31660156 -0.05347656 11.00820312 -0.04882812 9.66015625 C-0.03707594 6.44005719 -0.02064543 3.2200523 0 0 Z " fill="#8A53E2" transform="translate(19,114)"/>
<path d="M0 0 C1.29228516 0.00966797 2.58457031 0.01933594 3.91601562 0.02929688 C5.27083945 0.0543589 6.62565716 0.07975369 7.98046875 0.10546875 C9.3548032 0.12052862 10.72915343 0.13421474 12.10351562 0.14648438 C15.45873507 0.18180247 18.81315041 0.23113024 22.16796875 0.29296875 C18.91042951 2.23006513 16.51186947 2.5301232 12.74609375 2.48828125 C11.20888672 2.47861328 11.20888672 2.47861328 9.640625 2.46875 C8.57714844 2.45199219 7.51367188 2.43523438 6.41796875 2.41796875 C4.79955078 2.40443359 4.79955078 2.40443359 3.1484375 2.390625 C0.48805597 2.3670818 -2.17187461 2.33419674 -4.83203125 2.29296875 C-5.16203125 3.61296875 -5.49203125 4.93296875 -5.83203125 6.29296875 C-9.64692799 7.76023673 -12.12214747 6.72633294 -15.83203125 5.29296875 C-15.27515625 5.02484375 -14.71828125 4.75671875 -14.14453125 4.48046875 C-11.78507204 3.33557744 -11.78507204 3.33557744 -9.61450195 1.73706055 C-6.18014147 -0.04535959 -3.85561404 -0.05095525 0 0 Z " fill="#3597F4" transform="translate(115.83203125,20.70703125)"/>
<path d="M0 0 C0.66 0.33 1.32 0.66 2 1 C-11.57421875 14.57421875 -11.57421875 14.57421875 -13.90917969 16.90771484 C-15.14621613 18.14561796 -16.38183079 19.38494919 -17.61425781 20.62744141 C-19.48118438 22.50887776 -21.34524881 24.29073584 -23.375 26 C-25.30271302 27.91898386 -25.30271302 27.91898386 -24.875 30.6875 C-24.23669149 33.16427096 -24.23669149 33.16427096 -22 34 C-22.33 34.66 -22.66 35.32 -23 36 C-25 34.875 -25 34.875 -27 33 C-27.53852401 30.04503574 -27.66180683 27.98846396 -25.9440918 25.4229126 C-24.39543865 23.70011238 -22.77530613 22.10119618 -21.09375 20.5078125 C-20.49445679 19.91700897 -19.89516357 19.32620544 -19.27770996 18.71749878 C-17.36545255 16.83875535 -15.43338383 14.98197119 -13.5 13.125 C-12.19785512 11.8529569 -10.89705671 10.57953391 -9.59765625 9.3046875 C-6.41382461 6.18691369 -3.21206394 3.08866904 0 0 Z " fill="#200C47" transform="translate(89,182)"/>
<path d="M0 0 C0.66 0.33 1.32 0.66 2 1 C1.4225 1.99 0.845 2.98 0.25 4 C-4.59076497 13.69875686 -6.54461048 25.25280725 -7 36 C-7.33 36 -7.66 36 -8 36 C-9.65405337 21.81101207 -9.65405337 21.81101207 -6.890625 16.0078125 C-5.39038022 12.62568172 -4.69468002 9.00909602 -3.84375 5.41796875 C-2.95526662 2.87180574 -2.04587722 1.71058068 0 0 Z " fill="#624FE0" transform="translate(72,97)"/>
<path d="M0 0 C1.65 0.33 3.3 0.66 5 1 C3.59368017 4.11896676 1.90245104 6.45402854 -0.375 9 C-0.99246094 9.6909375 -1.60992187 10.381875 -2.24609375 11.09375 C-4.110649 13.12025994 -6.0132807 15.09274947 -8 17 C-8.66 16.67 -9.32 16.34 -10 16 C-8.75023244 12.34683329 -8.32901247 11.21934164 -5 9 C-4.34 9.33 -3.68 9.66 -3 10 C-3 8.35 -3 6.7 -3 5 C-2.34 5 -1.68 5 -1 5 C-0.67 3.35 -0.34 1.7 0 0 Z " fill="#5755E8" transform="translate(81,80)"/>
<path d="M0 0 C0.66 0 1.32 0 2 0 C1.54287762 1.54202616 1.08423653 3.08360214 0.625 4.625 C0.36976562 5.48351562 0.11453125 6.34203125 -0.1484375 7.2265625 C-0.728071 9.11435967 -1.35802117 10.98727051 -2.03125 12.84375 C-3.14998438 16.4886588 -3.67909781 20.10310609 -4.125 23.875 C-4.21136719 24.56335938 -4.29773438 25.25171875 -4.38671875 25.9609375 C-4.59659566 27.63995275 -4.79907087 29.31989048 -5 31 C-5.33 31 -5.66 31 -6 31 C-6.42993498 20.23570202 -6.43676708 9.15046837 0 0 Z " fill="#7745E5" transform="translate(26,92)"/>
<path d="M0 0 C3.4375 1.25 3.4375 1.25 7 3 C7.9375 5.1875 7.9375 5.1875 8 7 C7.34 7 6.68 7 6 7 C6 7.66 6 8.32 6 9 C5.34 9 4.68 9 4 9 C3.67 8.34 3.34 7.68 3 7 C0.00463263 5.86382617 -1.97878489 6.02889514 -5 7 C-5.33 6.01 -5.66 5.02 -6 4 C-4.7934375 3.566875 -4.7934375 3.566875 -3.5625 3.125 C-0.8673532 2.26737432 -0.8673532 2.26737432 0 0 Z " fill="#1DBEF8" transform="translate(184,37)"/>
<path d="M0 0 C0.66 0 1.32 0 2 0 C0.51717266 5.09104053 -0.97924907 10.09246202 -3 15 C-3.35858516 16.32676508 -3.7018576 17.65835921 -4 19 C-4 18.34 -4 17.68 -4 17 C-4.66 17 -5.32 17 -6 17 C-6.33 17.99 -6.66 18.98 -7 20 C-7.33 19.34 -7.66 18.68 -8 18 C-6.94838173 15.27401745 -5.83965896 12.65185086 -4.625 10 C-4.295 9.26265625 -3.965 8.5253125 -3.625 7.765625 C-2.45432498 5.15777983 -1.27852368 2.55704736 0 0 Z " fill="#684AE4" transform="translate(32,75)"/>
<path d="M0 0 C-6.12791774 4.12330635 -11.99556447 6.66518816 -19 9 C-19.66 8.34 -20.32 7.68 -21 7 C-19.10545176 6.03912864 -17.20930419 5.08141031 -15.3125 4.125 C-14.25675781 3.59132813 -13.20101562 3.05765625 -12.11328125 2.5078125 C-3.92991518 -1.45552414 -3.92991518 -1.45552414 0 0 Z " fill="#4F87E7" transform="translate(94,27)"/>
<path d="M0 0 C0.99 0.66 1.98 1.32 3 2 C3.55797435 5.66668859 3.44090109 7.36314287 1.3125 10.4375 C-1 12 -1 12 -3.75 11.75 C-4.4925 11.5025 -5.235 11.255 -6 11 C-3.25 7.125 -3.25 7.125 -1 6 C-1 5.34 -1 4.68 -1 4 C-0.34 4 0.32 4 1 4 C0.67 2.68 0.34 1.36 0 0 Z " fill="#31BBF0" transform="translate(191,40)"/>
<path d="M0 0 C1.32 0 2.64 0 4 0 C2.52278578 3.45201639 0.56205999 5.64961936 -2.125 8.25 C-2.84945312 8.95640625 -3.57390625 9.6628125 -4.3203125 10.390625 C-4.87460938 10.92171875 -5.42890625 11.4528125 -6 12 C-6.625 10.1875 -6.625 10.1875 -7 8 C-5 5 -5 5 -2.875 4.3125 C-2.25625 4.209375 -1.6375 4.10625 -1 4 C-0.67 2.68 -0.34 1.36 0 0 Z " fill="#46A9E9" transform="translate(174,62)"/>
<path d="M0 0 C0.99 0.33 1.98 0.66 3 1 C1.52278578 4.45201639 -0.43794001 6.64961936 -3.125 9.25 C-3.84945312 9.95640625 -4.57390625 10.6628125 -5.3203125 11.390625 C-5.87460937 11.92171875 -6.42890625 12.4528125 -7 13 C-7.66 11.68 -8.32 10.36 -9 9 C-8.01 9 -7.02 9 -6 9 C-5.34 7.68 -4.68 6.36 -4 5 C-3.01 5 -2.02 5 -1 5 C-0.67 3.35 -0.34 1.7 0 0 Z " fill="#844CE5" transform="translate(67,168)"/>
<path d="M0 0 C2.31625061 1.11777771 4.62784605 2.24374092 6.9375 3.375 C7.59685547 3.69210938 8.25621094 4.00921875 8.93554688 4.3359375 C13.88671875 6.7734375 13.88671875 6.7734375 15 9 C14.484375 8.855625 13.96875 8.71125 13.4375 8.5625 C10.31490429 7.84190099 7.17449308 7.42733561 4 7 C3.67 6.01 3.34 5.02 3 4 C2.01 3.67 1.02 3.34 0 3 C0 2.01 0 1.02 0 0 Z " fill="#38BDE9" transform="translate(174,30)"/>
<path d="M0 0 C-3.96 3.465 -3.96 3.465 -8 7 C-8.99 6.01 -9.98 5.02 -11 4 C-8.17267749 -0.24098377 -4.91545957 -1.63848652 0 0 Z " fill="#EFF5F8" transform="translate(61,43)"/>
<path d="M0 0 C0.66 0.33 1.32 0.66 2 1 C1.67 2.65 1.34 4.3 1 6 C0.34 6 -0.32 6 -1 6 C-1 5.34 -1 4.68 -1 4 C-3.2236068 5.9254644 -3.2236068 5.9254644 -4 9 C-5.32 8.01 -6.64 7.02 -8 6 C-5.36 4.02 -2.72 2.04 0 0 Z " fill="#5475EA" transform="translate(71,35)"/>
<path d="M0 0 C0.33 0.99 0.66 1.98 1 3 C-2.3 4.32 -5.6 5.64 -9 7 C-8.67 5.35 -8.34 3.7 -8 2 C-6.865625 1.855625 -5.73125 1.71125 -4.5625 1.5625 C-1.19222799 1.38828522 -1.19222799 1.38828522 0 0 Z " fill="#4D77EB" transform="translate(109,66)"/>
<path d="M0 0 C0.33 0.99 0.66 1.98 1 3 C0.01 3.33 -0.98 3.66 -2 4 C-2.103125 4.639375 -2.20625 5.27875 -2.3125 5.9375 C-2.539375 6.618125 -2.76625 7.29875 -3 8 C-6.0625 9.25 -6.0625 9.25 -9 10 C-8.06409496 8.8944811 -7.12620142 7.79064547 -6.1875 6.6875 C-5.66542969 6.07261719 -5.14335938 5.45773438 -4.60546875 4.82421875 C-3.12827531 3.14575321 -1.59960869 1.56117966 0 0 Z " fill="#FAEFFA" transform="translate(67,173)"/>
<path d="M0 0 C0.66 0 1.32 0 2 0 C5.12940055 3.97193147 5.29162929 7.04230204 5 12 C2.9330412 9.9330412 2.35542451 8.69369158 1.375 6 C1.11460938 5.29875 0.85421875 4.5975 0.5859375 3.875 C0 2 0 2 0 0 Z " fill="#9758E5" transform="translate(24,161)"/>
<path d="M0 0 C0.33 0 0.66 0 1 0 C0.67 5.94 0.34 11.88 0 18 C-0.33 18 -0.66 18 -1 18 C-1.22245975 15.75135275 -1.42746557 13.50097377 -1.625 11.25 C-1.74101563 9.99703125 -1.85703125 8.7440625 -1.9765625 7.453125 C-1.99888599 4.16413097 -1.77961002 2.68979224 0 0 Z " fill="#5A35E2" transform="translate(65,115)"/>
<path d="M0 0 C0.66 0 1.32 0 2 0 C1.57781184 1.6498275 1.13675575 3.29483665 0.6875 4.9375 C0.44386719 5.85402344 0.20023438 6.77054687 -0.05078125 7.71484375 C-0.36402344 8.46894531 -0.67726563 9.22304687 -1 10 C-1.99 10.33 -2.98 10.66 -4 11 C-3.49357808 6.64477147 -2.61588503 3.55760365 0 0 Z " fill="#6E43EC" transform="translate(26,92)"/>
<path d="M0 0 C-0.33 0.66 -0.66 1.32 -1 2 C-0.401875 1.79375 0.19625 1.5875 0.8125 1.375 C3 1 3 1 6 3 C2.8125 3.75 2.8125 3.75 -1 4 C-3.9375 2.0625 -3.9375 2.0625 -6 0 C-2.25 -1.125 -2.25 -1.125 0 0 Z " fill="#4D9DE5" transform="translate(161,72)"/>
<path d="M0 0 C0.99 0 1.98 0 3 0 C3.66 1.32 4.32 2.64 5 4 C2.69 4.66 0.38 5.32 -2 6 C-1.49396008 3.83125748 -1.00016187 2.00032373 0 0 Z " fill="#F6F6F8" transform="translate(35,189)"/>
<path d="M0 0 C1.98 0.66 3.96 1.32 6 2 C5.34 3.32 4.68 4.64 4 6 C3.34 6 2.68 6 2 6 C1.67 5.34 1.34 4.68 1 4 C0.01 3.34 -0.98 2.68 -2 2 C-1.34 1.34 -0.68 0.68 0 0 Z " fill="#270F5A" transform="translate(94,181)"/>
<path d="M0 0 C0.33 0.99 0.66 1.98 1 3 C0.34 3 -0.32 3 -1 3 C-1.66 4.32 -2.32 5.64 -3 7 C-4.32 6.67 -5.64 6.34 -7 6 C-2.25 1.125 -2.25 1.125 0 0 Z " fill="#F6F5F4" transform="translate(154,147)"/>
<path d="M0 0 C1.65 0.33 3.3 0.66 5 1 C3.63016497 4.16115776 3.0109362 4.9927092 0 7 C-1.125 2.25 -1.125 2.25 0 0 Z " fill="#5560EC" transform="translate(81,80)"/>
<path d="M0 0 C0.33 0.99 0.66 1.98 1 3 C-0.65 4.65 -2.3 6.3 -4 8 C-4.33 6.68 -4.66 5.36 -5 4 C-3.35 2.68 -1.7 1.36 0 0 Z " fill="#F1F4F5" transform="translate(42,58)"/>
<path d="M0 0 C0.33 0 0.66 0 1 0 C1.33 2.97 1.66 5.94 2 9 C1.67 8.34 1.34 7.68 1 7 C0.34 7 -0.32 7 -1 7 C-1.33 7.99 -1.66 8.98 -2 10 C-3 8 -3 8 -2.44140625 6.0546875 C-2.15136719 5.33539063 -1.86132812 4.61609375 -1.5625 3.875 C-1.27503906 3.15054688 -0.98757812 2.42609375 -0.69140625 1.6796875 C-0.46324219 1.12539062 -0.23507813 0.57109375 0 0 Z " fill="#7451E3" transform="translate(27,85)"/>
<path d="M0 0 C0.33 0.99 0.66 1.98 1 3 C0 4 0 4 -3.5625 4.0625 C-4.696875 4.041875 -5.83125 4.02125 -7 4 C-4.83989616 0.75984424 -3.8842653 0 0 0 Z " fill="#1EB3F6" transform="translate(157,28)"/>
<path d="M0 0 C0.66 0 1.32 0 2 0 C1.6875 2.375 1.6875 2.375 1 5 C0.01 5.66 -0.98 6.32 -2 7 C-2.66 6.34 -3.32 5.68 -4 5 C-3.34 5 -2.68 5 -2 5 C-2 4.01 -2 3.02 -2 2 C-1.34 2 -0.68 2 0 2 C0 1.34 0 0.68 0 0 Z " fill="#9050EE" transform="translate(57,178)"/>
<path d="M0 0 C-1.13304992 3.39914975 -2.12518475 4.05254451 -5 6 C-5.99 5.01 -6.98 4.02 -8 3 C-2.25 0 -2.25 0 0 0 Z " fill="#E8F3FA" transform="translate(103,72)"/>
<path d="M0 0 C1.65 0 3.3 0 5 0 C5 0.66 5 1.32 5 2 C6.32 2.33 7.64 2.66 9 3 C6.69 3.33 4.38 3.66 2 4 C2 3.01 2 2.02 2 1 C1.34 0.67 0.68 0.34 0 0 Z " fill="#3394F5" transform="translate(152,68)"/>
<path d="M0 0 C0.33 0.66 0.66 1.32 1 2 C-0.21484375 4.3828125 -0.21484375 4.3828125 -1.9375 7.125 C-2.50339844 8.03507812 -3.06929687 8.94515625 -3.65234375 9.8828125 C-4.09707031 10.58148438 -4.54179688 11.28015625 -5 12 C-5.68359375 10.265625 -5.68359375 10.265625 -6 8 C-4.78515625 5.859375 -4.78515625 5.859375 -3.0625 3.75 C-2.49660156 3.04359375 -1.93070313 2.3371875 -1.34765625 1.609375 C-0.90292969 1.07828125 -0.45820312 0.5471875 0 0 Z " fill="#655BE4" transform="translate(44,58)"/>
<path d="M0 0 C0.66 0 1.32 0 2 0 C2 2.31 2 4.62 2 7 C1.01 7.495 1.01 7.495 0 8 C-0.99 7.34 -1.98 6.68 -3 6 C-2.505 5.566875 -2.01 5.13375 -1.5 4.6875 C0.33218192 3.00259517 0.33218192 3.00259517 0 0 Z " fill="#2FADF5" transform="translate(178,55)"/>
<path d="M0 0 C0.66 0.33 1.32 0.66 2 1 C-0.19924069 4.35673579 -2.38269598 6.23772368 -6 8 C-6.66 7.67 -7.32 7.34 -8 7 C-5.36 4.69 -2.72 2.38 0 0 Z " fill="#5A6BE1" transform="translate(61,42)"/>
<path d="M0 0 C0.33 0.99 0.66 1.98 1 3 C3.01508358 3.73323796 3.01508358 3.73323796 5 4 C4.67 4.99 4.34 5.98 4 7 C2.02 5.68 0.04 4.36 -2 3 C-1.34 2.01 -0.68 1.02 0 0 Z " fill="#DEF9FA" transform="translate(188,34)"/>
<path d="M0 0 C2.97 0.495 2.97 0.495 6 1 C5.67 2.32 5.34 3.64 5 5 C4.67 4.34 4.34 3.68 4 3 C2.35 3 0.7 3 -1 3 C-0.67 2.01 -0.34 1.02 0 0 Z " fill="#25B8F5" transform="translate(168,29)"/>
<path d="M0 0 C0.99 0 1.98 0 3 0 C3 2.31 3 4.62 3 7 C2.34 6.67 1.68 6.34 1 6 C1 5.01 1 4.02 1 3 C0.34 2.67 -0.32 2.34 -1 2 C-0.67 1.34 -0.34 0.68 0 0 Z " fill="#9B41F8" transform="translate(35,179)"/>
<path d="M0 0 C0.66 0.99 1.32 1.98 2 3 C-0.97 5.475 -0.97 5.475 -4 8 C-4.66 7.67 -5.32 7.34 -6 7 C-4.02 4.69 -2.04 2.38 0 0 Z " fill="#F3E7F8" transform="translate(74,165)"/>
</svg>
