<?xml version="1.0" encoding="UTF-8"?>
<svg version="1.1" xmlns="http://www.w3.org/2000/svg" width="320" height="320">
<path d="M0 0 C2.475 0.495 2.475 0.495 5 1 C5.33 2.65 5.66 4.3 6 6 C6.94875 5.195625 7.8975 4.39125 8.875 3.5625 C12.91209654 0.13974424 15.38755445 -0.18212094 20.75 -0.25 C21.96171875 -0.27578125 23.1734375 -0.3015625 24.421875 -0.328125 C29.68734737 0.15473491 33.69140975 2.07676126 37.1875 6.0625 C41.90125037 11.9392229 43.59718875 19.26004871 43.28125 26.7109375 C42.32923178 34.45930802 40.04342676 40.84447006 34 46 C28.05912996 49.68333943 21.86898949 49.8540807 15 49 C11.71273356 47.86681188 8.50364287 46.50364287 6 44 C5.67 50.6 5.34 57.2 5 64 C3.35 64 1.7 64 0 64 C0 42.88 0 21.76 0 0 Z M8.6875 9.25 C4.23109709 16.51228622 3.78494671 25.14306343 5.5 33.41015625 C6.99100391 37.94246928 9.01738469 40.44704147 13 43 C17.19104934 45.09552467 22.43586161 44.41220622 27 44 C31.89402615 41.90256022 34.14889874 39.01510371 36.2421875 34.265625 C38.86071941 26.43702444 38.24754477 19.54181885 35 12 C32.36996493 7.73752937 29.69199404 5.74799778 25 4 C18.53806144 3.29506125 13.40501428 4.6599861 8.6875 9.25 Z " fill="#000000" transform="translate(105,128)"/>
<path d="M0 0 C5.11155867 2.63966706 8.5928704 6.92970465 11.03515625 12.046875 C11.72265625 15.296875 11.72265625 15.296875 11.72265625 25.296875 C-0.48734375 25.296875 -12.69734375 25.296875 -25.27734375 25.296875 C-23.6593876 34.77220217 -23.6593876 34.77220217 -17.71484375 41.109375 C-11.99458379 43.08546481 -6.77037273 43.00244924 -0.96484375 41.359375 C2.89852608 38.39446327 4.6635837 34.64279361 6.72265625 30.296875 C8.37265625 30.296875 10.02265625 30.296875 11.72265625 30.296875 C10.58567291 36.77768003 8.72733617 40.91778007 3.72265625 45.296875 C-2.00045864 48.77563111 -7.74970518 49.23706986 -14.27734375 48.296875 C-21.40237012 46.02293041 -25.5778244 42.74119903 -29.27734375 36.296875 C-31.86279219 28.54052967 -31.68944414 17.06333224 -28.33984375 9.546875 C-21.97674992 -0.66942565 -11.44774541 -3.53446685 0 0 Z M-23.27734375 11.296875 C-25.02822669 14.71526549 -25.27734375 16.36071519 -25.27734375 20.296875 C-14.71734375 20.296875 -4.15734375 20.296875 6.72265625 20.296875 C5.32108846 11.96707747 5.32108846 11.96707747 0.72265625 6.296875 C-8.68053582 1.33882827 -16.33709788 2.96857996 -23.27734375 11.296875 Z " fill="#000000" transform="translate(46.27734375,128.703125)"/>
<path d="M0 0 C5.25092475 3.12978848 8.01818976 6.22198108 9.84375 12.1484375 C12.07229873 22.03509004 12.07229873 22.03509004 10.765625 24.6484375 C-1.444375 24.6484375 -13.654375 24.6484375 -26.234375 24.6484375 C-24.99924156 32.28331769 -24.99924156 32.28331769 -21.296875 37.6484375 C-20.79285156 38.2053125 -20.28882813 38.7621875 -19.76953125 39.3359375 C-15.59209241 42.90748827 -9.38034219 42.03438504 -4.234375 41.6484375 C0.86553454 39.98542352 2.49586886 36.04885934 4.84765625 31.51171875 C5.15058594 30.89683594 5.45351562 30.28195313 5.765625 29.6484375 C7.085625 29.6484375 8.405625 29.6484375 9.765625 29.6484375 C10.40424905 33.90593114 9.6536088 36.32699601 7.265625 39.7734375 C3.29545768 44.60427046 -0.64865544 47.13922289 -6.875 48.0234375 C-13.38327105 48.31430995 -18.71680068 47.17323446 -24.234375 43.6484375 C-28.76235042 39.23961932 -30.99977356 33.94615156 -31.6328125 27.74609375 C-31.64531052 26.40107704 -31.63707937 25.05572693 -31.609375 23.7109375 C-31.60067383 23.00799561 -31.59197266 22.30505371 -31.58300781 21.58081055 C-31.36885551 14.01614389 -29.71579492 8.12985742 -24.234375 2.6484375 C-17.47801022 -2.78602982 -7.95910161 -3.32590478 0 0 Z M-24.234375 10.6484375 C-24.894375 13.6184375 -25.554375 16.5884375 -26.234375 19.6484375 C-15.674375 19.6484375 -5.114375 19.6484375 5.765625 19.6484375 C4.36405721 11.31863997 4.36405721 11.31863997 -0.234375 5.6484375 C-9.36625442 0.83344653 -17.71428241 2.07917295 -24.234375 10.6484375 Z " fill="#000000" transform="translate(207.234375,129.3515625)"/>
<path d="M0 0 C0.68473389 -0.01853027 1.36946777 -0.03706055 2.07495117 -0.05615234 C7.16398687 0.00650084 10.0085116 1.35224732 13.9375 4.5 C14.54207031 4.98082031 15.14664063 5.46164063 15.76953125 5.95703125 C17.33514092 8.02531159 17.43898587 9.620505 17.625 12.1875 C17.72361328 13.39986328 17.72361328 13.39986328 17.82421875 14.63671875 C17.88029297 15.55904297 17.88029297 15.55904297 17.9375 16.5 C16.2875 16.5 14.6375 16.5 12.9375 16.5 C12.56625 15.241875 12.195 13.98375 11.8125 12.6875 C10.59025273 9.46053875 10.08962512 8.61063645 7.1875 6.5 C0.66830608 4.49409418 -4.68778752 5.71060702 -11.0625 7.5 C-11.0625 10.47 -11.0625 13.44 -11.0625 16.5 C-5.45579321 19.60483763 0.21892325 21.0207818 6.39257812 22.51757812 C11.09352297 23.73517406 14.37644691 25.00836315 17.9375 28.5 C19.80684896 32.23869792 19.47535244 36.4285821 18.9375 40.5 C16.22584266 45.16066105 13.20889722 47.44791588 8.16796875 49.02734375 C0.10673935 50.73559026 -6.86781051 49.49851116 -14.0625 45.5 C-17.57619963 42.50050032 -18.27674637 40.12660152 -18.8125 35.6875 C-18.91261115 34.2927696 -19.00162884 32.89699314 -19.0625 31.5 C-16.75 31.5625 -16.75 31.5625 -14.0625 32.5 C-13.31415925 34.22443739 -12.57184316 35.95290339 -11.90625 37.7109375 C-10.32065766 41.07298052 -8.41628993 42.0290395 -5.0625 43.5 C1.45920557 44.27765595 6.43489054 44.35476919 11.9375 40.5 C13.31521762 39.33524938 13.31521762 39.33524938 13.25 36.125 C13.34438144 32.5201025 13.34438144 32.5201025 11.20263672 30.86279297 C8.90482602 29.48034208 6.96952299 28.74736377 4.3828125 28.0703125 C3.52042969 27.83183594 2.65804687 27.59335938 1.76953125 27.34765625 C-0.02592458 26.86834986 -1.8228011 26.39433203 -3.62109375 25.92578125 C-9.24567838 24.35827406 -12.99680454 22.76147534 -17.0625 18.5 C-18.78770683 14.65715732 -18.27589576 11.19353621 -17.0625 7.25 C-12.36987945 0.79764674 -7.63664728 0.13024413 0 0 Z " fill="#000000" transform="translate(242.0625,127.5)"/>
<path d="M0 0 C3.63734299 2.14782776 5.75918252 4.01974228 7.32421875 8.01171875 C7.40195335 10.34375687 7.41389603 12.68010934 7.32421875 15.01171875 C5.01171875 14.94921875 5.01171875 14.94921875 2.32421875 14.01171875 C1.84984375 12.89796875 1.37546875 11.78421875 0.88671875 10.63671875 C-0.35988589 6.8757677 -0.35988589 6.8757677 -3.42578125 5.07421875 C-10.08689187 2.89654797 -14.63679625 3.99222625 -20.67578125 7.01171875 C-21.99546303 8.11700317 -21.99546303 8.11700317 -21.92578125 10.88671875 C-21.96823015 13.93806814 -21.96823015 13.93806814 -20.42504883 15.62915039 C-18.41128601 17.22076782 -16.93197621 17.69208014 -14.4375 18.2578125 C-13.61701172 18.45568359 -12.79652344 18.65355469 -11.95117188 18.85742188 C-10.23789633 19.24921243 -8.5243576 19.63985404 -6.81054688 20.02929688 C-0.31608141 21.59832723 4.46898335 23.22886565 8.32421875 29.01171875 C8.98429375 33.96995656 9.08024975 38.49965676 6.82421875 43.01171875 C0.04638 48.43398975 -7.2858463 48.8553348 -15.67578125 48.01171875 C-20.81508783 46.80631775 -24.31730353 44.04189201 -27.67578125 40.01171875 C-29.72375305 36.28813366 -29.83854967 34.08140822 -28.67578125 30.01171875 C-27.35578125 30.01171875 -26.03578125 30.01171875 -24.67578125 30.01171875 C-24.44503906 30.5428125 -24.21429688 31.07390625 -23.9765625 31.62109375 C-21.88678903 36.14755962 -20.20022529 39.55278177 -15.67578125 42.01171875 C-9.26342688 43.58209125 -4.35458644 43.44266355 1.32421875 40.01171875 C3.37614671 37.5323058 3.32073709 36.18232026 3.38671875 32.94921875 C2.59619271 29.70849456 2.59619271 29.70849456 -0.734375 28.484375 C-5.36096662 26.66482262 -10.11934792 25.28858261 -14.890625 23.90625 C-20.39354285 22.25432246 -24.434082 20.87426763 -27.67578125 16.01171875 C-27.94140625 13.890625 -27.94140625 13.890625 -27.92578125 11.57421875 C-27.9309375 10.81238281 -27.93609375 10.05054688 -27.94140625 9.265625 C-27.64170865 6.72260269 -27.05075937 5.1672125 -25.67578125 3.01171875 C-18.34259803 -2.16464588 -8.47249266 -3.12925641 0 0 Z " fill="#000000" transform="translate(295.67578125,128.98828125)"/>
<path d="M0 0 C3.83969605 0.24897165 5.58068677 0.60172028 8.4140625 3.29296875 C9.14367187 4.24816406 9.87328125 5.20335937 10.625 6.1875 C11.38941406 7.1775 12.15382813 8.1675 12.94140625 9.1875 C15.05758326 12.07867163 17.10878243 14.95760651 19 18 C23.24364115 13.99802406 26.46608371 9.38742585 29.87890625 4.6796875 C32 2 32 2 35 0 C36.32 0 37.64 0 39 0 C38.39758901 3.51727107 37.05929395 5.44891444 34.76953125 8.15234375 C34.13208984 8.92900391 33.49464844 9.70566406 32.83789062 10.50585938 C31.48473108 12.13043375 30.12267388 13.74763702 28.75195312 15.35742188 C28.11837891 16.13537109 27.48480469 16.91332031 26.83203125 17.71484375 C26.24139893 18.41730225 25.6507666 19.11976074 25.04223633 19.84350586 C23.71728416 21.99871603 23.71728416 21.99871603 24.61938477 24.49780273 C25.99606636 26.99287076 27.46156714 29.11005142 29.2578125 31.3203125 C29.88300781 32.10277344 30.50820312 32.88523438 31.15234375 33.69140625 C32.47436763 35.32233868 33.79729398 36.95253995 35.12109375 38.58203125 C35.74371094 39.36191406 36.36632812 40.14179688 37.0078125 40.9453125 C37.58160645 41.65187988 38.15540039 42.35844727 38.74658203 43.08642578 C40 45 40 45 40 48 C37.2231989 48.02444982 35.54832085 47.97669725 33 47 C30.44465129 44.4849871 28.60584706 41.57844538 26.6875 38.5625 C25.65087421 37.00054847 24.61316234 35.43931704 23.57421875 33.87890625 C23.12651123 33.1835376 22.67880371 32.48816895 22.2175293 31.77172852 C20.98636505 29.86483801 20.98636505 29.86483801 19 28 C18.61666504 28.5347998 18.23333008 29.06959961 17.83837891 29.62060547 C16.10249592 32.04011399 14.36378452 34.45757595 12.625 36.875 C11.72007813 38.13763672 11.72007813 38.13763672 10.796875 39.42578125 C9.92675781 40.63427734 9.92675781 40.63427734 9.0390625 41.8671875 C8.23782959 42.98262939 8.23782959 42.98262939 7.42041016 44.12060547 C6 46 6 46 4 48 C1.375 48.125 1.375 48.125 -1 48 C-1 44.15816744 0.16583361 43.12216761 2.5 40.11328125 C3.221875 39.17548828 3.94375 38.23769531 4.6875 37.27148438 C5.450625 36.29501953 6.21375 35.31855469 7 34.3125 C8.1446875 32.83040039 8.1446875 32.83040039 9.3125 31.31835938 C11.20196869 28.87385925 13.09798552 26.43474293 15 24 C13.15501886 20.11361788 10.70998215 16.86952274 8.0625 13.5 C7.1782145 12.36471644 6.29409589 11.22930287 5.41015625 10.09375 C4.01946549 8.30861696 2.6170517 6.5322266 1.18359375 4.78125 C0 3 0 3 0 0 Z " fill="#000000" transform="translate(60,128)"/>
<path d="M0 0 C2.0625 0.4375 2.0625 0.4375 4 1 C4.33 2.65 4.66 4.3 5 6 C5.47308594 5.65066406 5.94617188 5.30132812 6.43359375 4.94140625 C11.60032163 1.38613346 15.74807789 0.15919246 22 0 C22 1.65 22 3.3 22 5 C21.00419922 5.23783203 21.00419922 5.23783203 19.98828125 5.48046875 C13.59455267 7.16990652 9.60191217 8.94744377 5.90087891 14.71191406 C4.64627895 17.89839394 4.67000217 20.75324502 4.5859375 24.171875 C4.56657135 24.8542926 4.5472052 25.53671021 4.5272522 26.23980713 C4.46768902 28.40974608 4.42116554 30.57973877 4.375 32.75 C4.33679869 34.22528297 4.2977457 35.70054415 4.2578125 37.17578125 C4.16200765 40.78365418 4.07789084 44.39169083 4 48 C2.35 48 0.7 48 -1 48 C-1.02526945 41.3247966 -1.04283268 34.64960543 -1.05493164 27.97436523 C-1.05997325 25.70157409 -1.06680637 23.4287862 -1.07543945 21.15600586 C-1.08751261 17.89696449 -1.09322987 14.63796583 -1.09765625 11.37890625 C-1.10281754 10.35599991 -1.10797882 9.33309357 -1.11329651 8.27919006 C-1.11337204 7.33829025 -1.11344757 6.39739044 -1.11352539 5.42797852 C-1.115746 4.59524918 -1.11796661 3.76251984 -1.12025452 2.90455627 C-1 1 -1 1 0 0 Z " fill="#000000" transform="translate(155,128)"/>
</svg>
