<?xml version="1.0" encoding="UTF-8"?>
<svg version="1.1" xmlns="http://www.w3.org/2000/svg" width="225" height="225">
<path d="M0 0 C74.25 0 148.5 0 225 0 C225 74.25 225 148.5 225 225 C150.75 225 76.5 225 0 225 C0 150.75 0 76.5 0 0 Z " fill="#FDFEFE" transform="translate(0,0)"/>
<path d="M0 0 C1.75809627 0.95016411 3.51513539 1.90228446 5.27172852 2.85522461 C6.25029312 3.38522568 7.22885773 3.91522675 8.23707581 4.46128845 C11.60953671 6.33945961 14.75036148 8.38342194 17.9375 10.5625 C19.2297364 11.43728072 20.52274644 12.31091939 21.81640625 13.18359375 C22.4933252 13.6410498 23.17024414 14.09850586 23.86767578 14.56982422 C41.99950713 26.73106398 60.46211774 38.46925984 79 50 C85.37014441 46.57709385 91.4633837 42.85312117 97.5 38.875 C99.26681059 37.718572 101.03373961 36.56232493 102.80078125 35.40625 C104.11296631 34.54580078 104.11296631 34.54580078 105.45166016 33.66796875 C109.18768421 31.22262325 112.93689897 28.79790409 116.6875 26.375 C118.07422299 25.47787114 119.46094176 24.58073575 120.84765625 23.68359375 C123.66648742 21.86097601 126.48706188 20.04108994 129.30859375 18.22265625 C130.7474747 17.29439307 132.18627728 16.36600841 133.625 15.4375 C134.32077148 14.98898682 135.01654297 14.54047363 135.73339844 14.07836914 C139.28868729 11.77971964 142.82357589 9.45555158 146.33203125 7.0859375 C147.02280762 6.62002197 147.71358398 6.15410645 148.42529297 5.67407227 C149.73838562 4.78556004 151.04874833 3.89299603 152.35595703 2.99584961 C156.78087893 0 156.78087893 0 159 0 C159.23184797 12.65632293 159.40945671 25.31213968 159.51812172 37.97015476 C159.57028069 43.84813577 159.64100517 49.72466263 159.75439453 55.60180664 C159.86316903 61.27535687 159.92286592 66.94751007 159.94877243 72.62202263 C159.96722966 74.78513525 160.00327546 76.94817254 160.05730057 79.11068916 C160.46378131 96.05757524 160.46378131 96.05757524 156.88601685 100.80523682 C154.30446314 102.64309522 151.92747764 103.81264029 149 105 C147.28620592 106.06723324 145.58821945 107.16066743 143.9140625 108.2890625 C142.15217768 109.40284075 140.38912138 110.51476764 138.625 111.625 C136.70797362 112.84057874 134.79131597 114.05673915 132.875 115.2734375 C129.93004688 117.14151943 126.98502548 119.00948748 124.0390625 120.87597656 C121.22967895 122.66008575 118.42664098 124.45376413 115.625 126.25 C114.75697754 126.79865723 113.88895508 127.34731445 112.99462891 127.91259766 C112.20491699 128.42097168 111.41520508 128.9293457 110.6015625 129.453125 C109.90369629 129.89817383 109.20583008 130.34322266 108.48681641 130.80175781 C107.99616699 131.19717773 107.50551758 131.59259766 107 132 C107 132.66 107 133.32 107 134 C109.11721153 135.66590215 109.11721153 135.66590215 111.85546875 137.37109375 C112.87060547 138.02787109 113.88574219 138.68464844 114.93164062 139.36132812 C116.00607422 140.04646484 117.08050781 140.73160156 118.1875 141.4375 C119.24259766 142.11876953 120.29769531 142.80003906 121.38476562 143.50195312 C124.24904827 145.347021 127.11632814 147.18538648 130 149 C130.83571533 149.58789307 131.67143066 150.17578613 132.5324707 150.78149414 C134.90762653 152.19615969 134.90762653 152.19615969 137.44799805 151.91772461 C140.60926489 150.78090245 143.05619859 149.21251554 145.83203125 147.31640625 C146.38158981 146.94490952 146.93114838 146.57341278 147.49736023 146.19065857 C148.6690517 145.39758166 149.83833392 144.60093546 151.00537109 143.80102539 C154.03055091 141.72770234 157.07286958 139.67979646 160.11328125 137.62890625 C160.70960358 137.22564117 161.3059259 136.8223761 161.9203186 136.40689087 C167.90619656 132.36743971 174.00477784 128.53000753 180.15625 124.75 C182.12740749 123.53698001 184.07422515 122.2838499 186 121 C186.06171941 117.88178833 186.06171941 117.88178833 185.5625 114.21875 C183.79215867 92.61200214 183.79215867 92.61200214 188.20654297 86.26531982 C195.01837379 78.87227574 204.90738612 73.9836196 214 70 C214.33 70 214.66 70 215 70 C215.46635821 78.37937837 215.82008706 86.75323716 216.03624344 95.14243603 C216.14008574 99.04000639 216.28035015 102.92863101 216.50878906 106.82104492 C217.94016425 131.86161993 217.94016425 131.86161993 213.12850952 138.63418579 C208.54064541 142.88539212 203.37487583 145.4514569 197.63493347 147.81774902 C193.20417135 149.80575855 189.30546227 152.57192892 185.3125 155.3125 C176.55079566 161.01699843 167.74655258 166.65419176 158.92700195 172.26879883 C157.94046631 172.89810303 156.95393066 173.52740723 155.9375 174.17578125 C154.96683594 174.79275879 153.99617187 175.40973633 152.99609375 176.04541016 C150.87293437 177.4305156 148.79262423 178.83467811 146.72265625 180.29443359 C145.65917969 181.0364502 144.59570312 181.7784668 143.5 182.54296875 C142.5409375 183.22770264 141.581875 183.91243652 140.59375 184.61791992 C138 186 138 186 135.97583008 185.90527344 C133.48059993 184.76202453 131.21105987 183.43550619 128.88671875 181.97265625 C127.39688477 181.03909302 127.39688477 181.03909302 125.87695312 180.08666992 C124.29817383 179.08470581 124.29817383 179.08470581 122.6875 178.0625 C121.60533203 177.38098877 120.52316406 176.69947754 119.40820312 175.99731445 C105.51492113 167.21655287 105.51492113 167.21655287 100.27392578 163.44555664 C97.10729852 161.20241632 94.21039582 159.64009192 90.53515625 158.36328125 C85.61904211 156.44869557 81.75993174 154.67072736 79 150 C76.02293684 139.11765724 75.89407547 126.86274962 79 116 C82.6617218 110.29614257 88.43818089 108.18734975 94.59765625 105.95703125 C98.29044048 104.48592208 101.34434287 102.30006162 104.5625 100 C105.7631184 99.18639292 106.96627948 98.37652616 108.171875 97.5703125 C108.78224609 97.15942383 109.39261719 96.74853516 110.02148438 96.32519531 C113.76814379 93.8157102 117.53697609 91.3407783 121.3125 88.875 C122.04863525 88.38902344 122.78477051 87.90304688 123.54321289 87.40234375 C128.76938547 84 128.76938547 84 131 84 C131 73.11 131 62.22 131 51 C116.39617861 60.2460658 116.39617861 60.2460658 101.890625 69.64453125 C101.01082474 70.22127846 101.01082474 70.22127846 100.11325073 70.80967712 C97.23394568 72.69865604 94.35717501 74.59139878 91.48291016 76.48803711 C90.43409668 77.17776611 89.3852832 77.86749512 88.3046875 78.578125 C87.37640137 79.19075195 86.44811523 79.80337891 85.49169922 80.43457031 C84.66943848 80.95116211 83.84717773 81.46775391 83 82 C82.33693848 82.45930908 81.67387695 82.91861816 80.99072266 83.3918457 C79 84 79 84 76.56835938 82.96459961 C75.66923828 82.36655518 74.77011719 81.76851074 73.84375 81.15234375 C72.83030518 80.49008789 71.81686035 79.82783203 70.77270508 79.14550781 C69.6927124 78.41686523 68.61271973 77.68822266 67.5 76.9375 C66.38081236 76.19866168 65.26060332 75.46136837 64.1394043 74.72558594 C61.85760385 73.2251853 59.58162764 71.7165275 57.31005859 70.20068359 C53.3577957 67.57303219 49.37666562 64.99224567 45.390625 62.41625977 C42.95122272 60.83965744 40.5153533 59.25784248 38.08203125 57.671875 C37.43468018 57.2500293 36.7873291 56.82818359 36.12036133 56.39355469 C33.40487534 54.60886913 30.70371113 52.80247409 28 51 C28 71.13 28 91.26 28 112 C24.37 109.69 20.74 107.38 17 105 C15.43758072 104.23137131 13.87516144 103.46274261 12.26539612 102.67082214 C1.37417626 97.24395661 1.37417626 97.24395661 -0.9294014 91.80600357 C-2.3858539 85.38912626 -1.95233494 78.88842667 -1.66015625 72.36328125 C-1.62840294 70.27159953 -1.60422579 68.17979037 -1.58726501 66.0879364 C-1.52269644 60.61162159 -1.35607851 55.14311345 -1.16729736 49.66986084 C-0.99260513 44.07329957 -0.91558728 38.47546145 -0.83007812 32.87695312 C-0.64837379 21.91455914 -0.35870776 10.95793131 0 0 Z " fill="#0388D0" transform="translate(5,24)"/>
<path d="M0 0 C1.75809627 0.95016411 3.51513539 1.90228446 5.27172852 2.85522461 C6.25029312 3.38522568 7.22885773 3.91522675 8.23707581 4.46128845 C11.60953671 6.33945961 14.75036148 8.38342194 17.9375 10.5625 C19.2297364 11.43728072 20.52274644 12.31091939 21.81640625 13.18359375 C22.4933252 13.6410498 23.17024414 14.09850586 23.86767578 14.56982422 C37.57625587 23.76433557 51.5466675 32.57803011 65.453125 41.46875 C66.39929688 42.09370361 67.34546875 42.71865723 68.3203125 43.36254883 C70.8945985 45.04021575 70.8945985 45.04021575 73.4921875 45.98706055 C76.05846858 47.06758503 77.33759751 47.74586552 79 50 C79.99507429 55.63268997 79.75223807 61.11989138 79.5 66.8125 C79.45985042 68.37946706 79.42335215 69.94653222 79.390625 71.51367188 C79.30266498 75.34487392 79.16476794 79.17136332 79 83 C75.10682256 81.58931962 71.87175135 79.75501201 68.421875 77.47265625 C67.35074463 76.76761963 66.27961426 76.06258301 65.17602539 75.33618164 C64.03398594 74.57833446 62.89197806 73.82043969 61.75 73.0625 C60.58162682 72.29173891 59.41292358 71.52147791 58.24389648 70.75170898 C56.48913619 69.59613068 54.73460033 68.4402277 52.98118591 67.28260803 C48.02760818 64.01241344 43.0509567 60.77915224 38.0625 57.5625 C31.27045247 53.18030165 31.27045247 53.18030165 28 51 C28 71.13 28 91.26 28 112 C24.37 109.69 20.74 107.38 17 105 C15.43758072 104.23137131 13.87516144 103.46274261 12.26539612 102.67082214 C1.37417626 97.24395661 1.37417626 97.24395661 -0.9294014 91.80600357 C-2.3858539 85.38912626 -1.95233494 78.88842667 -1.66015625 72.36328125 C-1.62840294 70.27159953 -1.60422579 68.17979037 -1.58726501 66.0879364 C-1.52269644 60.61162159 -1.35607851 55.14311345 -1.16729736 49.66986084 C-0.99260513 44.07329957 -0.91558728 38.47546145 -0.83007812 32.87695312 C-0.64837379 21.91455914 -0.35870776 10.95793131 0 0 Z " fill="#28B6F5" transform="translate(5,24)"/>
<path d="M0 0 C0.46635821 8.37937837 0.82008706 16.75323716 1.03624344 25.14243603 C1.14008574 29.04000639 1.28035015 32.92863101 1.50878906 36.82104492 C2.94016425 61.86161993 2.94016425 61.86161993 -1.87149048 68.63418579 C-6.45935459 72.88539212 -11.62512417 75.4514569 -17.36506653 77.81774902 C-21.79582865 79.80575855 -25.69453773 82.57192892 -29.6875 85.3125 C-38.44920434 91.01699843 -47.25344742 96.65419176 -56.07299805 102.26879883 C-62.24785142 106.20678896 -62.24785142 106.20678896 -68.34765625 110.25927734 C-69.42917969 110.99227051 -70.51070312 111.72526367 -71.625 112.48046875 C-72.60726562 113.15360107 -73.58953125 113.8267334 -74.6015625 114.52026367 C-77 116 -77 116 -79 116 C-79.27392246 111.58965677 -79.47235258 107.18391784 -79.60424805 102.76757812 C-79.65925571 101.26930486 -79.73410328 99.77161395 -79.82983398 98.27539062 C-80.60144555 85.89659548 -80.60144555 85.89659548 -76.75732422 81.34399414 C-73.93208255 79.27000221 -71.11152908 77.60641119 -68 76 C-66.737058 75.19825235 -65.48047228 74.38627929 -64.234375 73.55859375 C-63.66533447 73.2123999 -63.09629395 72.86620605 -62.51000977 72.50952148 C-61.26123605 71.74889374 -60.02588442 70.96603138 -58.80053711 70.16821289 C-54.61783099 67.46964578 -50.42886591 65.24798701 -45.89453125 63.1875 C-36.31177844 58.52593215 -36.31177844 58.52593215 -29 51 C-27.83221778 44.81083781 -28.4202897 38.73804939 -28.92849731 32.49462891 C-29.76552267 20.61714105 -29.76552267 20.61714105 -26.8581543 16.30737305 C-21.65997908 10.62917622 -7.9798294 0 0 0 Z " fill="#0388D0" transform="translate(220,94)"/>
<path d="M0 0 C6.82301302 4.34191738 13.63978999 8.68207441 20.38476562 13.14257812 C23.43851677 15.3060683 23.43851677 15.3060683 27 16 C28.34638122 17.32015649 29.67770991 18.65571414 31 20 C32.47670953 21.07348924 33.98534699 22.10413954 35.51953125 23.09375 C36.37740234 23.64933594 37.23527344 24.20492187 38.11914062 24.77734375 C39.00794922 25.34582031 39.89675781 25.91429687 40.8125 26.5 C41.68970703 27.06847656 42.56691406 27.63695312 43.47070312 28.22265625 C48.25204386 31.30531572 53.04936591 34.17106624 58 37 C57.67 47.89 57.34 58.78 57 70 C43.50532988 62.12810909 43.50532988 62.12810909 38.73828125 58.984375 C37.16530273 57.95086914 37.16530273 57.95086914 35.56054688 56.89648438 C34.48869141 56.18814453 33.41683594 55.47980469 32.3125 54.75 C31.17667767 54.00288204 30.04060694 53.25614158 28.90429688 52.50976562 C26.65384854 51.0315217 24.40408909 49.55225292 22.15478516 48.07226562 C17.78022426 45.19877291 13.39334813 42.34466265 9 39.5 C8.30688721 39.04979492 7.61377441 38.59958984 6.8996582 38.13574219 C3.5250728 35.9387684 3.5250728 35.9387684 0 34 C0 22.78 0 11.56 0 0 Z " fill="#2AB6F5" transform="translate(84,140)"/>
<path d="M0 0 C0.27392246 4.41034323 0.47235258 8.81608216 0.60424805 13.23242188 C0.65925571 14.73069514 0.73410328 16.22838605 0.82983398 17.72460938 C1.60140902 30.10281855 1.60140902 30.10281855 -2.21411133 34.62304688 C-5.04734325 36.69355151 -7.89923978 38.36277796 -11 40 C-12.44179177 40.96994668 -13.87201328 41.95751955 -15.28515625 42.96875 C-16.54271645 43.81481497 -17.80178582 44.65864196 -19.0625 45.5 C-19.71154297 45.94085938 -20.36058594 46.38171875 -21.02929688 46.8359375 C-25.7606512 50 -25.7606512 50 -28 50 C-28.27392246 45.58965677 -28.47235258 41.18391784 -28.60424805 36.76757812 C-28.65925571 35.26930486 -28.73410328 33.77161395 -28.82983398 32.27539062 C-29.60140902 19.89718145 -29.60140902 19.89718145 -25.78588867 15.37695312 C-22.95265675 13.30644849 -20.10076022 11.63722204 -17 10 C-15.55820823 9.03005332 -14.12798672 8.04248045 -12.71484375 7.03125 C-11.45728355 6.18518503 -10.19821418 5.34135804 -8.9375 4.5 C-8.28845703 4.05914062 -7.63941406 3.61828125 -6.97070312 3.1640625 C-2.2393488 0 -2.2393488 0 0 0 Z " fill="#0488D0" transform="translate(220,29)"/>
</svg>
