<?xml version="1.0" encoding="UTF-8"?>
<svg version="1.1" xmlns="http://www.w3.org/2000/svg" width="1652" height="1105">
<path d="M0 0 C545.16 0 1090.32 0 1652 0 C1652 364.65 1652 729.3 1652 1105 C1106.84 1105 561.68 1105 0 1105 C0 740.35 0 375.7 0 0 Z " fill="#FAFBFD" transform="translate(0,0)"/>
<path d="M0 0 C1.670625 0.928125 3.34125 1.85625 5.0625 2.8125 C9.30751097 5.13193898 13.51897257 7.18852083 18 9 C18.99 9.495 18.99 9.495 20 10 C20 10.66 20 11.32 20 12 C20.78375 12.20625 21.5675 12.4125 22.375 12.625 C26.37364799 14.14172855 29.69480232 16.15981694 33.3203125 18.40234375 C37.42437062 20.84922388 41.69623625 22.93053062 46 25 C46 25.66 46 26.32 46 27 C46.86625 27.268125 47.7325 27.53625 48.625 27.8125 C51.91791964 28.97111987 54.91127875 30.38209839 58 32 C58 32.66 58 33.32 58 34 C58.825 34.226875 59.65 34.45375 60.5 34.6875 C64.73136618 36.27426232 68.25171013 38.50748237 72 41 C71 44 71 44 68.91015625 45.25390625 C67.97042969 45.68574219 67.03070313 46.11757813 66.0625 46.5625 C60.6004395 49.1796017 55.28799564 51.98433395 50 54.9375 C49.21947266 55.37336426 48.43894531 55.80922852 47.63476562 56.25830078 C42.48201066 59.14726142 37.3601035 62.08464535 32.26953125 65.08203125 C29.62709498 66.63213425 26.97836437 68.16934362 24.32421875 69.69921875 C23.48818115 70.18140869 22.65214355 70.66359863 21.79077148 71.16040039 C20.14373136 72.10981844 18.49614113 73.05828305 16.84790039 74.00561523 C12.36221575 76.59428679 7.95589815 79.26146444 3.62011719 82.09521484 C2 83 2 83 0 83 C0 75.74 0 68.48 0 61 C-28.35835981 61.43527797 -48.43962049 65.53199661 -71.25146484 82.69140625 C-74.28365674 84.96068139 -77.36064885 87.16688743 -80.4375 89.375 C-80.99260254 89.77960449 -81.54770508 90.18420898 -82.11962891 90.60107422 C-92.38444431 98 -92.38444431 98 -96 98 C-96 98.66 -96 99.32 -96 100 C-97.32 100.33 -98.64 100.66 -100 101 C-97.35414606 103.80219986 -94.79817235 105.89395492 -91.5 107.875 C-84.93936498 111.95108186 -78.6530357 116.39380645 -72.34570312 120.84912109 C-48.94217547 137.3597658 -30.41560346 141.40544553 -2 142 C-2 134.74 -2 127.48 -2 120 C2.03127692 121.61251077 6.01479973 123.280894 10 125 C10 125.66 10 126.32 10 127 C10.886875 127.268125 11.77375 127.53625 12.6875 127.8125 C15.82370743 128.93680078 18.17180778 130.26553868 21 132 C23.2065684 133.25311292 25.41505451 134.50285243 27.625 135.75 C32.08552846 138.27704742 36.45165491 140.88928959 40.75 143.6875 C44.8837406 146.36262935 49.08536245 148.60388786 53.51171875 150.75 C59.63166991 153.82438677 65.27888286 156.98785509 70 162 C64.57563305 165.47159485 59.04585479 168.72411824 53.44384766 171.8984375 C50.44714473 173.59750772 47.46122553 175.30999121 44.5 177.0703125 C43.4275 177.70710937 42.355 178.34390625 41.25 179 C40.28578125 179.5775 39.3215625 180.155 38.328125 180.75 C36 182 36 182 34 182 C34 182.66 34 183.32 34 184 C33.28457031 184.3403125 32.56914062 184.680625 31.83203125 185.03125 C24.98511227 188.36170477 18.5137505 192.05787078 12.0625 196.09765625 C0.95071869 203 0.95071869 203 -2 203 C-2 196.73 -2 190.46 -2 184 C-4.16175781 184.04640625 -6.32351563 184.0928125 -8.55078125 184.140625 C-39.68872793 184.67306843 -39.68872793 184.67306843 -54 180 C-54.80115234 179.7421875 -55.60230469 179.484375 -56.42773438 179.21875 C-69.68762942 174.78852984 -80.72905571 168.1627408 -92 160 C-93.23498529 159.11882131 -94.47062915 158.23856463 -95.70703125 157.359375 C-97.43395848 156.12835269 -99.15926486 154.89534543 -100.87988281 153.65551758 C-122.20041841 138.30707758 -142.00709456 128.19858109 -168 123 C-168 108.81 -168 94.62 -168 80 C-162.72 79.01 -157.44 78.02 -152 77 C-148.77660034 76.11095382 -145.6997207 75.22444008 -142.5625 74.125 C-141.80735107 73.8681543 -141.05220215 73.61130859 -140.27416992 73.34667969 C-135.5018948 71.67321082 -131.15433316 69.68934805 -126.8359375 67.03515625 C-124.00488758 65.43892598 -121.15257986 64.73783784 -118 64 C-118 63.34 -118 62.68 -118 62 C-116.19140625 60.6953125 -116.19140625 60.6953125 -113.5625 59.125 C-108.38434263 55.92711987 -103.39806527 52.52544694 -98.4375 49 C-97.70289551 48.47937988 -96.96829102 47.95875977 -96.21142578 47.42236328 C-93.12247484 45.2300037 -90.0403557 43.02912267 -86.96875 40.8125 C-74.66163793 32 -74.66163793 32 -70 32 C-70 31.34 -70 30.68 -70 30 C-61.23985952 26.01960097 -52.39065197 23.09697419 -43 21 C-42.23212158 20.81759766 -41.46424316 20.63519531 -40.6730957 20.44726562 C-32.23842032 18.65066152 -23.88288129 18.77353006 -15.3125 18.875 C-13.8209696 18.88505708 -12.32943258 18.89417808 -10.83789062 18.90234375 C-7.22495811 18.92240445 -3.6129675 18.96158688 0 19 C0 12.73 0 6.46 0 0 Z " fill="#020202" transform="translate(328,451)"/>
<path d="M0 0 C12.67124962 9.73298884 20.70619842 23.08055007 23 39 C23.27529963 43.64942555 23.27964259 48.2811426 23.25 52.9375 C23.26160156 54.75411133 23.26160156 54.75411133 23.2734375 56.60742188 C23.2371811 73.34881547 19.02646732 89.04774116 7.5625 101.6875 C4.42089191 104.52260974 1.26374527 107.30634124 -2 110 C-2.99 110.86625 -3.98 111.7325 -5 112.625 C-16.50598453 120.49081686 -33.51063625 120.7613209 -46.74609375 118.3046875 C-53.84007252 116.31603385 -59.96298581 113.19052817 -66 109 C-67.5159375 107.948125 -67.5159375 107.948125 -69.0625 106.875 C-76.54951501 100.32920973 -83.00805444 90.55060812 -86.125 81.1875 C-86.45757813 80.21167969 -86.79015625 79.23585938 -87.1328125 78.23046875 C-92.22126498 59.27483722 -91.22990837 34.99245311 -81.8125 17.625 C-73.0271075 3.8381154 -61.62173504 -5.33973786 -45.703125 -9.6171875 C-29.27356583 -11.94391698 -13.92905211 -9.29981224 0 0 Z " fill="#050505" transform="translate(600,493)"/>
<path d="M0 0 C58 0 58 0 71 4 C71.495 5.485 71.495 5.485 72 7 C73.32338632 7.68620031 74.65949948 8.34786461 76 9 C82.50049815 13.90853942 85.85286678 19.14620042 88 27 C89.39905719 38.16526199 89.96904297 50.84953124 83.83984375 60.65625 C78.86350615 66.99553357 74.03016069 71.14229449 67 75 C67.56589844 76.10859375 68.13179687 77.2171875 68.71484375 78.359375 C69.45594175 79.82280903 70.19681544 81.28635667 70.9375 82.75 C71.31068359 83.47960937 71.68386719 84.20921875 72.06835938 84.9609375 C72.42607422 85.66992188 72.78378906 86.37890625 73.15234375 87.109375 C73.48226318 87.75874023 73.81218262 88.40810547 74.15209961 89.07714844 C75.01452116 91.03293079 75.54374179 92.91540694 76 95 C76.66 95 77.32 95 78 95 C78.59167969 96.12277344 79.18335938 97.24554687 79.79296875 98.40234375 C80.59111491 99.91407883 81.38929412 101.42579645 82.1875 102.9375 C82.59734131 103.71569092 83.00718262 104.49388184 83.42944336 105.2956543 C85.91972935 110.00981443 88.47070008 114.67021933 91.22265625 119.23828125 C92 121 92 121 92 125 C85.07 125 78.14 125 71 125 C69.845 122.669375 68.69 120.33875 67.5 117.9375 C64.7392543 112.39781587 61.92178197 106.89401514 59 101.4375 C58.67644531 100.83325195 58.35289062 100.22900391 58.01953125 99.60644531 C56.26145136 96.33176092 54.49179124 93.06347809 52.71875 89.796875 C52.3475 89.10924072 51.97625 88.42160645 51.59375 87.71313477 C50.87863575 86.38873679 50.16002572 85.06621887 49.4375 83.74584961 C47 79.22529454 47 79.22529454 47 77 C37.76 77 28.52 77 19 77 C19 92.84 19 108.68 19 125 C12.73 125 6.46 125 0 125 C0 83.75 0 42.5 0 0 Z " fill="#050506" transform="translate(958,485)"/>
<path d="M0 0 C9.1948246 6.65291064 13.55375497 17.20082774 15.78515625 28.0390625 C18.06731418 44.42106442 16.39757687 61.67052086 6.3515625 75.28125 C-0.07890769 82.99781422 -7.56647029 88.4544214 -17.7109375 89.65625 C-27.86886309 90.31160004 -35.11942139 89.82262906 -43.0859375 83.28125 C-45.9259011 80.65846009 -47.77639893 78.51122162 -48.7109375 74.65625 C-49.3709375 74.65625 -50.0309375 74.65625 -50.7109375 74.65625 C-51.0409375 90.82625 -51.3709375 106.99625 -51.7109375 123.65625 C-57.6509375 123.65625 -63.5909375 123.65625 -69.7109375 123.65625 C-69.7109375 80.75625 -69.7109375 37.85625 -69.7109375 -6.34375 C-63.7709375 -6.34375 -57.8309375 -6.34375 -51.7109375 -6.34375 C-51.2159375 0.58625 -51.2159375 0.58625 -50.7109375 7.65625 C-49.7209375 6.274375 -48.7309375 4.8925 -47.7109375 3.46875 C-35.53689536 -12.21181138 -15.33367641 -9.6844272 0 0 Z " fill="#040405" transform="translate(715.7109375,522.34375)"/>
<path d="M0 0 C10.28106227 7.42257952 16.11266656 17.27353868 18.63818359 29.65722656 C19.24213855 33.56785531 19.34079151 37.42348416 19.3125 41.375 C19.30686035 42.20717041 19.3012207 43.03934082 19.29541016 43.89672852 C19.05320313 56.20252392 15.25627388 69.00830899 6.4375 78 C5.30475504 79.01480189 4.16035281 80.01688485 3 81 C2.2575 81.721875 1.515 82.44375 0.75 83.1875 C-9.46804727 89.92212206 -22.07152561 91.20693293 -34 90 C-45.91363618 87.49508162 -54.20403032 81.45399878 -61.375 71.75 C-64.78124082 66.278786 -66.38386359 60.19104565 -68 54 C-68.1757959 53.35893311 -68.3515918 52.71786621 -68.53271484 52.05737305 C-71.51068944 38.94588301 -68.68256389 24.18955475 -62.25 12.625 C-55.90037197 2.9899923 -48.07867099 -2.81382794 -37.15234375 -6.6484375 C-24.23922825 -8.75765782 -10.90315822 -7.43980208 0 0 Z " fill="#070708" transform="translate(1133,522)"/>
<path d="M0 0 C6.13661263 4.42464657 10.81869224 9.12837523 14 16 C14.53625 17.093125 15.0725 18.18625 15.625 19.3125 C21.53258272 35.15556276 20.78418582 53.53788323 14 69 C8.34347138 79.45800058 0.76031868 84.69773673 -9.9375 89.25 C-19.24077833 91.52835388 -29.73868167 89.81700935 -38.12109375 85.26171875 C-48.2830828 78.43776353 -53.77365567 67.53153798 -56.25 55.8125 C-58.59507067 40.79137168 -57.91339366 22.88683421 -49 10 C-36.51603029 -5.86747552 -17.75426536 -9.68618781 0 0 Z " fill="#F8F9FB" transform="translate(586,505)"/>
<path d="M0 0 C0.99 0.78375 1.98 1.5675 3 2.375 C3 3.035 3 3.695 3 4.375 C3.99 4.705 4.98 5.035 6 5.375 C14.41127999 18.47381623 15 29.62761747 15 45.375 C-7.11 45.375 -29.22 45.375 -52 45.375 C-49.60222464 59.13899666 -49.60222464 59.13899666 -41.1953125 68.70703125 C-33.96694493 73.09679096 -25.98601876 73.32734573 -17.8125 71.75 C-13.36449893 70.48687596 -10.03831548 67.80747533 -7 64.375 C-5.81686303 62.2709501 -5.81686303 62.2709501 -5 60.375 C1.20104812 60.09939786 6.93184478 61.14600654 13 62.375 C12.81226686 69.69659242 7.91713219 74.57649426 2.88671875 79.40234375 C-2.35276095 83.80425121 -7.36693306 85.88571036 -14 87.375 C-14.60457031 87.55675781 -15.20914062 87.73851562 -15.83203125 87.92578125 C-27.13124056 90.26705885 -40.3163155 88.59790302 -50.40234375 83.0546875 C-52.44489209 81.61980709 -54.20775969 80.11060066 -56 78.375 C-56.60199219 77.81167969 -57.20398437 77.24835938 -57.82421875 76.66796875 C-68.35137354 65.82111728 -71.33943708 51.78608767 -71.23486328 37.20141602 C-71.11524963 32.0068542 -70.6280008 27.3055167 -69 22.375 C-68.74347656 21.56804688 -68.48695312 20.76109375 -68.22265625 19.9296875 C-63.77650351 7.44992831 -55.10466001 -0.88164546 -43.4296875 -6.64453125 C-29.0731137 -12.43793965 -12.30012962 -8.38982684 0 0 Z " fill="#070707" transform="translate(1406,523.625)"/>
<path d="M0 0 C0 0.66 0 1.32 0 2 C0.57878906 2.25394531 1.15757812 2.50789062 1.75390625 2.76953125 C9.38159923 6.94818045 13.05920101 14.33782524 15.54736328 22.33520508 C18.01733807 31.0084073 18 39.00393215 18 48 C-4.11 48 -26.22 48 -49 48 C-48.01 53.445 -48.01 53.445 -47 59 C-47 60.32 -47 61.64 -47 63 C-46.34 63 -45.68 63 -45 63 C-44.29875 64.0725 -43.5975 65.145 -42.875 66.25 C-39.30271133 71.48652997 -34.09805436 73.74729891 -28 75 C-21.62545088 75.63379838 -15.77071737 74.86855077 -10 72 C-7.12314797 69.45911321 -7.12314797 69.45911321 -5 67 C-4.34 67 -3.68 67 -3 67 C-2.505 65.02 -2.505 65.02 -2 63 C4.02900687 63.51241107 10.02004643 64.069785 16 65 C15.52583422 69.97874064 14.0900669 73.06718758 11 77 C10.34 77 9.68 77 9 77 C8.74734375 77.598125 8.4946875 78.19625 8.234375 78.8125 C4.86874918 84.77690019 -2.3492109 87.37254569 -8.5625 89.375 C-22.32388695 92.93064484 -35.4508197 91.85230178 -48 85 C-50.703125 82.9140625 -50.703125 82.9140625 -53.25 80.625 C-54.10078125 79.87476563 -54.9515625 79.12453125 -55.828125 78.3515625 C-58.03875221 75.95804168 -59.02065669 74.07949062 -60 71 C-60.66 71 -61.32 71 -62 71 C-62.82101314 68.8156809 -63.63142482 66.62737564 -64.4375 64.4375 C-64.88996094 63.21933594 -65.34242188 62.00117187 -65.80859375 60.74609375 C-70.81867895 44.99307176 -68.49494987 27.83313465 -61.4375 13.125 C-56.71215544 5.08951559 -48.86983265 -1.15495934 -40 -4 C-38.865625 -4.391875 -37.73125 -4.78375 -36.5625 -5.1875 C-24.0054091 -8.07587568 -11.19759337 -6.1881437 0 0 Z " fill="#070707" transform="translate(816,521)"/>
<path d="M0 0 C5.94 0 11.88 0 18 0 C18.02505615 1.9073291 18.0501123 3.8146582 18.07592773 5.77978516 C18.15995413 12.09418582 18.24821462 18.4085163 18.33933926 24.72281837 C18.39441306 28.54972194 18.44780736 32.37663333 18.49731445 36.20361328 C18.54518833 39.89950258 18.5975379 43.59530427 18.65294075 47.2910881 C18.67326046 48.69839663 18.69198999 50.10572907 18.70907402 51.5130806 C18.7333493 53.49005984 18.76389449 55.46695904 18.79467773 57.44384766 C18.81799416 59.12929184 18.81799416 59.12929184 18.84178162 60.8487854 C18.99843908 63.96891137 19.4230127 66.93219211 20 70 C20.66 70 21.32 70 22 70 C22.7425 70.969375 23.485 71.93875 24.25 72.9375 C26.12563388 75.24806348 26.76741702 75.92427531 29.6875 76.875 C30.780625 76.91625 31.87375 76.9575 33 77 C34.16789062 77.07347656 34.16789062 77.07347656 35.359375 77.1484375 C42.33475472 77.42322519 47.21772167 76.27640955 52.75 71.75 C58.81814502 64.33337831 58.46915617 56.98382796 58.51171875 47.75390625 C58.52858537 46.37383954 58.54673826 44.993788 58.56611633 43.61375427 C58.61340792 40.00205225 58.64335125 36.39041177 58.66955566 32.77850342 C58.69946719 29.08463388 58.74596079 25.390976 58.79101562 21.69726562 C58.87681135 14.4649312 58.94272628 7.23262684 59 0 C65.27 0 71.54 0 78 0 C78 31.02 78 62.04 78 94 C72.06 94 66.12 94 60 94 C60 88.72 60 83.44 60 78 C59.34 78 58.68 78 58 78 C57.835 78.845625 57.67 79.69125 57.5 80.5625 C54.6060803 87.19439932 48.59146882 91.11240498 42.21240234 94.18847656 C38.37609866 95.59565748 34.67499933 95.63678945 30.625 95.5625 C29.37372314 95.54823975 29.37372314 95.54823975 28.09716797 95.53369141 C20.58520642 95.28021582 14.87145945 93.6317131 9.296875 88.40234375 C6 84.71600275 6 84.71600275 6 82 C5.34 82 4.68 82 4 82 C-0.0070721 72.48338125 -0.53634908 63.67675557 -0.390625 53.515625 C-0.38314526 51.96336605 -0.37746055 50.41109753 -0.37347412 48.85882568 C-0.35835375 44.81450361 -0.31919355 40.77077537 -0.2746582 36.72668457 C-0.23340807 32.58349638 -0.21540025 28.44021027 -0.1953125 24.296875 C-0.15268233 16.19761657 -0.08244821 8.09895104 0 0 Z " fill="#060606" transform="translate(1173,516)"/>
<path d="M0 0 C0 0.66 0 1.32 0 2 C0.66 2 1.32 2 2 2 C8.85754877 10.44006003 11.13429531 18.89784979 11.11352539 29.73974609 C11.11367142 30.38435791 11.11381744 31.02896973 11.1139679 31.69311523 C11.11327661 33.80325805 11.10552133 35.91331029 11.09765625 38.0234375 C11.09578928 39.4945979 11.09436669 40.96575892 11.09336853 42.43692017 C11.08956533 46.29365785 11.07975398 50.15035738 11.06866455 54.00708008 C11.05840302 57.94872522 11.05386078 61.89037658 11.04882812 65.83203125 C11.03812958 73.55470684 11.02055075 81.2773432 11 89 C4.73 89 -1.54 89 -8 89 C-8.0093457 87.03732178 -8.01869141 85.07464355 -8.02832031 83.05249023 C-8.06391541 76.5503603 -8.11775626 70.04857916 -8.18390274 63.54669094 C-8.2233253 59.6065504 -8.25553907 55.66663158 -8.27099609 51.72631836 C-8.28619756 47.91996929 -8.32070362 44.11423 -8.36830902 40.30815315 C-8.38308713 38.85983661 -8.39103896 37.41143299 -8.39188385 35.96304131 C-8.26408955 25.2757558 -8.26408955 25.2757558 -13 16 C-13.99 15.34 -14.98 14.68 -16 14 C-16 13.34 -16 12.68 -16 12 C-24.27137502 10.09358643 -33.5866229 9.4257886 -41 14 C-46.83322292 20.15729086 -49.08468931 25.71280374 -49.20532227 34.05371094 C-49.22526749 35.27467468 -49.24521271 36.49563843 -49.26576233 37.75360107 C-49.29083107 39.72408417 -49.29083107 39.72408417 -49.31640625 41.734375 C-49.33698919 43.09629936 -49.35798601 44.45821752 -49.37937927 45.82012939 C-49.43446165 49.39734872 -49.48393164 52.97462438 -49.53222656 56.55194092 C-49.58254289 60.20525094 -49.63817597 63.85847958 -49.69335938 67.51171875 C-49.80077165 74.67441206 -49.90176226 81.83717391 -50 89 C-55.94 89 -61.88 89 -68 89 C-68 57.98 -68 26.96 -68 -5 C-62.06 -5 -56.12 -5 -50 -5 C-49.505 1.93 -49.505 1.93 -49 9 C-48.195625 7.80375 -47.39125 6.6075 -46.5625 5.375 C-42.75591381 0.29654496 -37.86895283 -3.94133131 -31.64453125 -5.64453125 C-19.79051241 -7.23790749 -10.42264528 -5.61219361 0 0 Z " fill="#040505" transform="translate(922,521)"/>
<path d="M0 0 C5.94 0 11.88 0 18 0 C18 7.59 18 15.18 18 23 C24.27 23 30.54 23 37 23 C37 27.95 37 32.9 37 38 C30.73 38 24.46 38 18 38 C18.0177485 45.47629448 18.05654627 52.95177225 18.13209057 60.42772198 C18.16633696 63.89941175 18.19146668 67.37066263 18.19555664 70.8425293 C18.20066594 74.83695467 18.24579466 78.83006706 18.29296875 82.82421875 C18.2890361 84.06709152 18.28510345 85.30996429 18.28105164 86.59049988 C18.15291788 93.49088765 18.15291788 93.49088765 21.34960938 99.27929688 C24.50865575 101.33023266 26.56648605 101.68900503 30.3125 101.8125 C33.1278125 101.9053125 33.1278125 101.9053125 36 102 C36.99 106.95 37.98 111.9 39 117 C30.60419464 118.67916107 19.74571827 120.04119495 11.8125 116 C5.5963967 111.74751073 2.06245093 106.14942355 0 99 C-0.24050903 95.962677 -0.24050903 95.962677 -0.22705078 92.71923828 C-0.22682419 90.88801926 -0.22682419 90.88801926 -0.22659302 89.01980591 C-0.21627045 87.71647308 -0.20594788 86.41314026 -0.1953125 85.0703125 C-0.19157802 83.71125497 -0.1887331 82.35219474 -0.18673706 80.99313354 C-0.17913483 77.43225551 -0.1595161 73.87154303 -0.1373291 70.31072998 C-0.11679679 66.67071776 -0.10771962 63.03067855 -0.09765625 59.390625 C-0.07626661 52.26034284 -0.04111266 45.13019971 0 38 C-4.62 38 -9.24 38 -14 38 C-14 33.05 -14 28.1 -14 23 C-9.38 23 -4.76 23 0 23 C0 15.41 0 7.82 0 0 Z " fill="#030303" transform="translate(1282,493)"/>
<path d="M0 0 C6.31281759 4.83534964 10.25313067 10.44394429 11.9375 18.25 C13.1174324 30.99433776 13.6615427 44.9366302 5.1875 55.25 C0.93038066 59.95705878 -3.69356244 61.94410116 -9.96484375 62.75390625 C-21.88610428 63.15332241 -21.88610428 63.15332241 -26.6875 59.875 C-34.32336726 52.69525755 -37.64543277 43.99890602 -38.27734375 33.7734375 C-38.58651222 21.62930002 -37.40678599 11.46209174 -29.0625 2.25 C-28.44375 1.46625 -27.825 0.6825 -27.1875 -0.125 C-19.3471474 -6.12056375 -8.00892728 -4.57652987 0 0 Z " fill="#F8F9FB" transform="translate(1121.0625,533.75)"/>
<path d="M0 0 C6.96740945 2.77950203 11.47220081 7.83123131 14.6875 14.5 C16.88439483 20.35838621 17.18238965 25.6238644 17.1875 31.8125 C17.19974609 32.58142578 17.21199219 33.35035156 17.22460938 34.14257812 C17.25085108 44.50805279 14.32590319 53.27664135 7.16796875 60.96875 C1.39997161 65.64490829 -5.08585268 66.0408081 -12.2421875 65.578125 C-18.58890171 64.60170743 -21.55697926 62.02469235 -25.4765625 57.171875 C-32.95406421 46.41476727 -33.18613609 33.64496216 -32 21 C-30.62989342 14.28205807 -28.43416887 9.37384323 -23 5 C-22.113125 4.2575 -21.22625 3.515 -20.3125 2.75 C-14.72285748 -1.47999974 -6.76248927 -0.96679681 0 0 Z " fill="#F8F9FA" transform="translate(696,531)"/>
<path d="M0 0 C2.68125 0.061875 5.3625 0.12375 8.125 0.1875 C8.125 5.7975 8.125 11.4075 8.125 17.1875 C6.9184375 17.20167969 5.711875 17.21585938 4.46875 17.23046875 C-5.95355097 17.48716495 -12.65351372 17.96601372 -20.25 25.5625 C-24.74713895 32.82710907 -24.21402246 40.70488887 -24.2890625 48.99609375 C-24.30779826 50.33131576 -24.32737342 51.66652623 -24.3477478 53.00172424 C-24.39882119 56.49503743 -24.43857847 59.98838891 -24.47589111 63.48187256 C-24.51608738 67.0550667 -24.56710798 70.62810501 -24.6171875 74.20117188 C-24.71365265 81.19650663 -24.79714841 88.19193356 -24.875 95.1875 C-30.815 95.1875 -36.755 95.1875 -42.875 95.1875 C-42.875 64.1675 -42.875 33.1475 -42.875 1.1875 C-36.935 1.1875 -30.995 1.1875 -24.875 1.1875 C-24.38 8.1175 -24.38 8.1175 -23.875 15.1875 C-23.215 13.5375 -22.555 11.8875 -21.875 10.1875 C-20.359375 8.2734375 -20.359375 8.2734375 -18.625 6.5625 C-18.06296875 5.99273438 -17.5009375 5.42296875 -16.921875 4.8359375 C-11.38935315 0.38035692 -6.82227414 -0.22371357 0 0 Z " fill="#010101" transform="translate(1483.875,514.8125)"/>
<path d="M0 0 C4.95 -0.04125 9.9 -0.0825 15 -0.125 C16.54558594 -0.14320801 18.09117187 -0.16141602 19.68359375 -0.18017578 C36.82149905 -0.24928024 36.82149905 -0.24928024 43.3125 4.75 C43.94800781 5.21921875 44.58351563 5.6884375 45.23828125 6.171875 C49.87981813 10.98837004 50.55424432 16.00446265 50.5 22.375 C50.49572998 23.12869873 50.49145996 23.88239746 50.48706055 24.65893555 C50.30576956 30.56594676 49.21374477 34.66855286 45 39 C44.319375 39.763125 43.63875 40.52625 42.9375 41.3125 C33.85092818 46.53244552 23.43184465 46.39310194 13.25 46.1875 C8.8775 46.125625 4.505 46.06375 0 46 C0 30.82 0 15.64 0 0 Z " fill="#F6F6F8" transform="translate(977,501)"/>
<path d="M0 0 C2.31290658 1.49279229 2.86149399 2.79314374 3.9609375 5.265625 C4.92 5.636875 4.92 5.636875 5.8984375 6.015625 C8.77896079 7.76139669 9.28713185 9.82823659 10.4453125 12.90234375 C10.9609375 15.265625 10.9609375 15.265625 10.9609375 22.265625 C-5.2090625 22.265625 -21.3790625 22.265625 -38.0390625 22.265625 C-35.77831354 10.9618802 -35.77831354 10.9618802 -33.0390625 7.140625 C-32.5234375 6.39554688 -32.0078125 5.65046875 -31.4765625 4.8828125 C-31.0021875 4.34914063 -30.5278125 3.81546875 -30.0390625 3.265625 C-29.3790625 3.265625 -28.7190625 3.265625 -28.0390625 3.265625 C-28.0390625 2.605625 -28.0390625 1.945625 -28.0390625 1.265625 C-18.74555259 -4.45345802 -9.97060007 -4.06568158 0 0 Z " fill="#F4F5F6" transform="translate(804.0390625,532.734375)"/>
<path d="M0 0 C3.60020157 3.60020157 6.60519053 8.09152426 7.25 13.25 C7.25 15.56 7.25 17.87 7.25 20.25 C-8.59 20.25 -24.43 20.25 -40.75 20.25 C-39.68180102 9.56801023 -38.23236545 6.14663944 -30.75 -0.625 C-21.22126506 -7.37452058 -9.50227002 -6.0468991 0 0 Z " fill="#F5F6F8" transform="translate(1394.75,534.75)"/>
<path d="M0 0 C2.68125 0.061875 5.3625 0.12375 8.125 0.1875 C8.125 5.7975 8.125 11.4075 8.125 17.1875 C6.9184375 17.20167969 5.711875 17.21585938 4.46875 17.23046875 C-5.95355097 17.48716495 -12.65351372 17.96601372 -20.25 25.5625 C-22.22792015 28.75760178 -23.0162952 31.53800458 -23.875 35.1875 C-24.865 34.8575 -25.855 34.5275 -26.875 34.1875 C-26.215 30.8875 -25.555 27.5875 -24.875 24.1875 C-25.535 24.5175 -26.195 24.8475 -26.875 25.1875 C-26.545 23.8675 -26.215 22.5475 -25.875 21.1875 C-25.215 21.1875 -24.555 21.1875 -23.875 21.1875 C-23.545 19.8675 -23.215 18.5475 -22.875 17.1875 C-23.535 16.8575 -24.195 16.5275 -24.875 16.1875 C-22.19823685 9.73177711 -18.05899428 5.2048044 -12.19921875 1.4921875 C-7.97293971 -0.16654011 -4.48080652 -0.14693301 0 0 Z " fill="#0D0D0E" transform="translate(1483.875,514.8125)"/>
<path d="M0 0 C0.99 0.33 1.98 0.66 3 1 C4.91654051 1.11659934 6.83672153 1.17666749 8.7565918 1.20532227 C10.52808846 1.2352401 10.52808846 1.2352401 12.33537292 1.26576233 C13.61044205 1.28247482 14.88551117 1.29918732 16.19921875 1.31640625 C17.50454056 1.33718735 18.80986237 1.35796844 20.15473938 1.37937927 C23.62182353 1.43452273 27.08896646 1.48396595 30.55615234 1.53222656 C34.09543069 1.5824981 37.63462389 1.63815463 41.17382812 1.69335938 C48.11581156 1.80084638 55.05787194 1.90231227 62 2 C62 2.33 62 2.66 62 3 C42.53 3 23.06 3 3 3 C3 3.66 3 4.32 3 5 C2.34 5 1.68 5 1 5 C0.67 5.66 0.34 6.32 0 7 C0 4.69 0 2.38 0 0 Z " fill="#F1F2F4" transform="translate(1354,569)"/>
<path d="M0 0 C0 3 0 3 0 3 Z M-7 3 C-6.01 3.495 -6.01 3.495 -5 4 C-3.00978479 3.90276549 -3.00978479 3.90276549 -0.875 3.5625 C0.40375 3.376875 1.6825 3.19125 3 3 C1.58976437 7.48711337 -0.71786946 9.71786946 -4 13 C-5.319018 15.66533035 -5.319018 15.66533035 -6 18 C-6.33 18 -6.66 18 -7 18 C-7 13.05 -7 8.1 -7 3 Z " fill="#EFF0F1" transform="translate(1466,513)"/>
<path d="M0 0 C0.66 0.33 1.32 0.66 2 1 C1.38125 1.5775 0.7625 2.155 0.125 2.75 C-2.04913012 4.8178558 -2.04913012 4.8178558 -3 7.125 C-4.27039443 9.50698956 -5.62226406 9.84948261 -8 11 C-8.33 11.99 -8.66 12.98 -9 14 C-10.89353366 15.89353366 -12.84526801 17.4198632 -15 19 C-15.33 18.34 -15.66 17.68 -16 17 C-11.30268291 10.47510937 -6.17720317 5.14066567 0 0 Z " fill="#29292A" transform="translate(536,491)"/>
<path d="M0 0 C0.66 0.33 1.32 0.66 2 1 C1.649375 2.093125 1.29875 3.18625 0.9375 4.3125 C-0.33039454 7.90920373 -0.33039454 7.90920373 1 11 C0.01 11.33 -0.98 11.66 -2 12 C-3.32 9.03 -4.64 6.06 -6 3 C-4.03533587 1.93224776 -2.03144641 0.93446535 0 0 Z " fill="#F0F1F2" transform="translate(1030,556)"/>
<path d="M0 0 C0.66 0.33 1.32 0.66 2 1 C1.01 2.1446875 1.01 2.1446875 0 3.3125 C-2.29850538 5.84277939 -2.29850538 5.84277939 -2 9 C-2.99 9 -3.98 9 -5 9 C-4.67 9.99 -4.34 10.98 -4 12 C-6.4375 11.1875 -6.4375 11.1875 -9 10 C-9.33 9.01 -9.66 8.02 -10 7 C-8.68 6.67 -7.36 6.34 -6 6 C-6 5.34 -6 4.68 -6 4 C-4.03852126 2.61061923 -2.03833424 1.2739589 0 0 Z " fill="#D4D4D5" transform="translate(238,545)"/>
<path d="M0 0 C0.66 0.66 1.32 1.32 2 2 C1.59007812 2.54269531 1.18015625 3.08539062 0.7578125 3.64453125 C0.21898437 4.35996094 -0.31984375 5.07539062 -0.875 5.8125 C-1.40867187 6.52019531 -1.94234375 7.22789062 -2.4921875 7.95703125 C-3.70814781 9.60456297 -4.86416141 11.29624211 -6 13 C-6.99 13 -7.98 13 -9 13 C-11.17032476 14.43990623 -11.17032476 14.43990623 -13 16 C-13.33 15.34 -13.66 14.68 -14 14 C-12.71372289 12.82739389 -11.42080217 11.6620717 -10.125 10.5 C-9.40570312 9.8503125 -8.68640625 9.200625 -7.9453125 8.53125 C-6 7 -6 7 -4 7 C-3.71125 6.401875 -3.4225 5.80375 -3.125 5.1875 C-2 3 -2 3 0 0 Z " fill="#D9D9DA" transform="translate(612,588)"/>
<path d="M0 0 C0.33 0.66 0.66 1.32 1 2 C0.67 2.66 0.34 3.32 0 4 C0.66 4 1.32 4 2 4 C0.79618552 6.49361571 -0.45428722 8.68143083 -2 11 C-4.625 11.6875 -4.625 11.6875 -7 12 C-7 9 -7 9 -4.625 6.5625 C-3.75875 5.716875 -2.8925 4.87125 -2 4 C-0.70480005 1.83379456 -0.70480005 1.83379456 0 0 Z " fill="#232325" transform="translate(1230,581)"/>
<path d="M0 0 C0.66 0.33 1.32 0.66 2 1 C1.484375 1.4125 0.96875 1.825 0.4375 2.25 C-0.036875 2.8275 -0.51125 3.405 -1 4 C-0.77242269 6.16299211 -0.77242269 6.16299211 0 8 C-0.5775 8.12375 -1.155 8.2475 -1.75 8.375 C-4.02335767 9.00648824 -5.9253529 9.88858191 -8 11 C-6.52670958 5.99081256 -3.72484762 3.48192278 0 0 Z " fill="#DEDEDF" transform="translate(1365,533)"/>
<path d="M0 0 C4.04352289 0.46656033 8.01928836 1.15560662 12 2 C11.67 2.99 11.34 3.98 11 5 C2.42857143 4.28571429 2.42857143 4.28571429 -1 1 C-0.67 0.67 -0.34 0.34 0 0 Z " fill="#F3F4F5" transform="translate(545,609)"/>
<path d="M0 0 C1.65 0.33 3.3 0.66 5 1 C2.25 5.875 2.25 5.875 0 7 C-0.99 6.34 -1.98 5.68 -3 5 C-2 3 -2 3 0 0 Z " fill="#F2F3F4" transform="translate(1396,584)"/>
<path d="M0 0 C0.66 0.66 1.32 1.32 2 2 C-0.64 3.98 -3.28 5.96 -6 8 C-6.66 7.67 -7.32 7.34 -8 7 C-6.41641358 3.83282717 -5.54736301 2.26731682 -2.3125 0.6875 C-1.549375 0.460625 -0.78625 0.23375 0 0 Z " fill="#232426" transform="translate(1033,551)"/>
<path d="M0 0 C4.43458973 1.3937282 6.87378374 3.60582235 10 7 C5.48279689 7.36625971 5.48279689 7.36625971 3.1875 5.625 C2 4 2 4 2 2 C1.34 2 0.68 2 0 2 C0 1.34 0 0.68 0 0 Z " fill="#ECEDEE" transform="translate(582,504)"/>
<path d="M0 0 C-3.1916518 2.82338429 -5.76830741 3.62384955 -10 4 C-10.33 3.67 -10.66 3.34 -11 3 C-13.33944736 3.28730055 -15.6739143 3.61936779 -18 4 C-12.40185694 0.26790462 -6.54467462 -0.27269478 0 0 Z " fill="#2C2C2E" transform="translate(564,483)"/>
<path d="M0 0 C0 1.32 0 2.64 0 4 C-3.3 3.34 -6.6 2.68 -10 2 C-10 1.34 -10 0.68 -10 0 C-6.7169902 -1.6415049 -3.57454967 -0.51888624 0 0 Z " fill="#161618" transform="translate(1018,500)"/>
<path d="M0 0 C0.33 0.99 0.66 1.98 1 3 C-1.97 5.475 -1.97 5.475 -5 8 C-5.75 6.25 -5.75 6.25 -6 4 C-2.77777778 0 -2.77777778 0 0 0 Z " fill="#EDEDEE" transform="translate(879,541)"/>
<path d="M0 0 C0.66 0.66 1.32 1.32 2 2 C-0.21928194 4.90802461 -1.92969143 6.95312762 -5 9 C-4.67 6.36 -4.34 3.72 -4 1 C-3.01 1 -2.02 1 -1 1 C-0.67 0.67 -0.34 0.34 0 0 Z " fill="#F2F3F5" transform="translate(1342,531)"/>
<path d="M0 0 C1 3 1 3 -0.125 5.625 C-2 8 -2 8 -4.6875 8.8125 C-5.450625 8.874375 -6.21375 8.93625 -7 9 C-6.02180976 7.68677212 -5.0424189 6.37443848 -4.0625 5.0625 C-3.51722656 4.33160156 -2.97195313 3.60070312 -2.41015625 2.84765625 C-1 1 -1 1 0 0 Z " fill="#D7D8D9" transform="translate(1415,595)"/>
<path d="M0 0 C2.23960447 2.87949147 4.29864224 5.76742026 6 9 C5.67 9.66 5.34 10.32 5 11 C4.01 11 3.02 11 2 11 C1.46770674 9.73392393 0.94955456 8.46189588 0.4375 7.1875 C0.14746094 6.47980469 -0.14257812 5.77210938 -0.44140625 5.04296875 C-1 3 -1 3 0 0 Z " fill="#222224" transform="translate(1026,564)"/>
<path d="M0 0 C1.32 0 2.64 0 4 0 C2.65202595 4.04392216 0.34285274 5.54857466 -3 8 C-3.33 7.34 -3.66 6.68 -4 6 C-2.25 3 -2.25 3 0 0 Z " fill="#1A1A1C" transform="translate(524,502)"/>
<path d="M0 0 C2.475 0.99 2.475 0.99 5 2 C5 2.66 5 3.32 5 4 C4.34 4 3.68 4 3 4 C3 4.66 3 5.32 3 6 C1.35 5.67 -0.3 5.34 -2 5 C-1.34 3.35 -0.68 1.7 0 0 Z " fill="#111113" transform="translate(666,591)"/>
<path d="M0 0 C1.10844919 3.32534757 0.84454356 5.62182575 0 9 C-1.32 9 -2.64 9 -4 9 C-2.94124926 5.59687262 -1.99097846 2.98646769 0 0 Z " fill="#DCDCDC" transform="translate(1046,535)"/>
<path d="M0 0 C0.66 0.33 1.32 0.66 2 1 C1.46890625 1.45890625 0.9378125 1.9178125 0.390625 2.390625 C-3.18324699 5.49493717 -6.71854059 8.58181312 -10 12 C-8.62968895 6.34746692 -4.32310587 3.4886459 0 0 Z " fill="#262628" transform="translate(884,518)"/>
<path d="M0 0 C1.32 0.66 2.64 1.32 4 2 C0.49461443 3.96301592 -3.13351728 4.95902388 -7 6 C-6.67 4.35 -6.34 2.7 -6 1 C-3.03 1.495 -3.03 1.495 0 2 C0 1.34 0 0.68 0 0 Z " fill="#212122" transform="translate(288,512)"/>
<path d="M0 0 C0.99 0.33 1.98 0.66 3 1 C2.34 4.3 1.68 7.6 1 11 C0.67 11 0.34 11 0 11 C-0.19491452 9.54263913 -0.38069358 8.08405407 -0.5625 6.625 C-0.66691406 5.81289063 -0.77132813 5.00078125 -0.87890625 4.1640625 C-1 2 -1 2 0 0 Z " fill="#EDEEF0" transform="translate(1419,538)"/>
<path d="M0 0 C0.66 0.66 1.32 1.32 2 2 C-0.31 3.65 -2.62 5.3 -5 7 C-5.33 5.68 -5.66 4.36 -6 3 C-4.02 2.01 -2.04 1.02 0 0 Z " fill="#161618" transform="translate(258,529)"/>
<path d="M0 0 C0.66 0.33 1.32 0.66 2 1 C1.04270084 2.12588014 0.08412105 3.2506715 -0.875 4.375 C-1.40867187 5.00148438 -1.94234375 5.62796875 -2.4921875 6.2734375 C-3.61432007 7.55836651 -4.79371975 8.79371975 -6 10 C-6.99 9.67 -7.98 9.34 -9 9 C-6.21000549 5.51250686 -3.74764169 2.49842779 0 0 Z " fill="#2C2D2E" transform="translate(676,518)"/>
<path d="M0 0 C-2.40820361 2.40820361 -3.65022937 2.68097423 -7 3 C-9.3125 2.0625 -9.3125 2.0625 -11 1 C-3.57142857 -1.42857143 -3.57142857 -1.42857143 0 0 Z " fill="#202123" transform="translate(897,516)"/>
<path d="M0 0 C2 1 2 1 3.125 4.0625 C3.41375 5.031875 3.7025 6.00125 4 7 C0.62496331 5.8141763 -1.64722731 4.72426311 -4 2 C-2.125 0.9375 -2.125 0.9375 0 0 Z " fill="#2A2B2D" transform="translate(252,616)"/>
<path d="M0 0 C3.96 0 7.92 0 12 0 C7.859724 3.105207 6.90248464 3.63945452 2 3 C1.34 2.01 0.68 1.02 0 0 Z " fill="#C8C9CB" transform="translate(1304,611)"/>
<path d="M0 0 C0.99 0 1.98 0 3 0 C2.25 5.75 2.25 5.75 0 8 C-0.66 6.35 -1.32 4.7 -2 3 C-1.34 2.67 -0.68 2.34 0 2 C0 1.34 0 0.68 0 0 Z " fill="#292929" transform="translate(829,586)"/>
<path d="M0 0 C0.66 0.33 1.32 0.66 2 1 C2 1.99 2 2.98 2 4 C0.02253397 4.73080266 -1.98072489 5.39421747 -4 6 C-4.66 5.67 -5.32 5.34 -6 5 C-4.02 3.35 -2.04 1.7 0 0 Z " fill="#E1E2E3" transform="translate(260,530)"/>
<path d="M0 0 C1.32 0.99 2.64 1.98 4 3 C3.6875 4.9375 3.6875 4.9375 3 7 C2.01 7.33 1.02 7.66 0 8 C-0.98120464 4.94736336 -0.98120464 3.05263664 0 0 Z " fill="#E9EAEB" transform="translate(593,512)"/>
<path d="M0 0 C1.10844919 3.32534757 0.84454356 5.62182575 0 9 C-0.99 9 -1.98 9 -3 9 C-2.69181644 7.68647977 -2.37832335 6.37420428 -2.0625 5.0625 C-1.88847656 4.33160156 -1.71445313 3.60070312 -1.53515625 2.84765625 C-1 1 -1 1 0 0 Z " fill="#222325" transform="translate(1342,535)"/>
<path d="M0 0 C2.31 0 4.62 0 7 0 C7 0.99 7 1.98 7 3 C4.69 3.33 2.38 3.66 0 4 C0 2.68 0 1.36 0 0 Z " fill="#09090B" transform="translate(1441,516)"/>
<path d="M0 0 C-0.3125 1.9375 -0.3125 1.9375 -1 4 C-4 5 -4 5 -6.1875 4.0625 C-6.785625 3.711875 -7.38375 3.36125 -8 3 C-3.375 0 -3.375 0 0 0 Z " fill="#D7D7D9" transform="translate(395,616)"/>
<path d="M0 0 C-1 3 -1 3 -2.8125 4 C-3.534375 4.33 -4.25625 4.66 -5 5 C-6.35113205 5.97581759 -7.68946944 6.97029741 -9 8 C-9.66 7.67 -10.32 7.34 -11 7 C-9.73742767 5.82439821 -8.46462916 4.65977135 -7.1875 3.5 C-6.12595703 2.52546875 -6.12595703 2.52546875 -5.04296875 1.53125 C-3 0 -3 0 0 0 Z " fill="#D5D5D6" transform="translate(1144,597)"/>
<path d="M0 0 C0.66 0.33 1.32 0.66 2 1 C1.34 1.61875 0.68 2.2375 0 2.875 C-2.2284549 4.75637427 -2.2284549 4.75637427 -2 7 C-2.99 7.33 -3.98 7.66 -5 8 C-5.66 7.34 -6.32 6.68 -7 6 C-4.69 4.02 -2.38 2.04 0 0 Z " fill="#1B1C1E" transform="translate(769,520)"/>
<path d="M0 0 C0.66 0.33 1.32 0.66 2 1 C0.92598892 3.91517292 0.22189824 5.77810176 -2 8 C-2.6875 5.6875 -2.6875 5.6875 -3 3 C-1.5625 1.1875 -1.5625 1.1875 0 0 Z " fill="#131313" transform="translate(613,582)"/>
<path d="M0 0 C0.66 0 1.32 0 2 0 C2 0.66 2 1.32 2 2 C3.98 2.66 5.96 3.32 8 4 C7.67 4.66 7.34 5.32 7 6 C4.69 5.34 2.38 4.68 0 4 C0 2.68 0 1.36 0 0 Z " fill="#1F2022" transform="translate(336,576)"/>
<path d="M0 0 C0.93065133 2.60582371 1.14917407 3.64198224 0.0625 6.25 C-0.4634375 7.11625 -0.4634375 7.11625 -1 8 C-1.66 7.67 -2.32 7.34 -3 7 C-2.625 4.0625 -2.625 4.0625 -2 1 C-1.34 0.67 -0.68 0.34 0 0 Z " fill="#171719" transform="translate(1460,542)"/>
<path d="M0 0 C0.99 0.33 1.98 0.66 3 1 C2.27683594 1.50660156 2.27683594 1.50660156 1.5390625 2.0234375 C0.90742187 2.46945312 0.27578125 2.91546875 -0.375 3.375 C-1.00148438 3.81585938 -1.62796875 4.25671875 -2.2734375 4.7109375 C-4.12380509 6.02808866 -4.12380509 6.02808866 -6 8 C-6 7.01 -6 6.02 -6 5 C-3.1875 2.25 -3.1875 2.25 0 0 Z " fill="#D7D8D9" transform="translate(549,504)"/>
<path d="M0 0 C2.69082872 0.17635452 5.32851446 0.61835921 8 1 C7.67 1.66 7.34 2.32 7 3 C4.125 3.125 4.125 3.125 1 3 C0.34 2.34 -0.32 1.68 -1 1 C-0.67 0.67 -0.34 0.34 0 0 Z " fill="#E7E8E9" transform="translate(1091,610)"/>
<path d="M0 0 C6.625 -0.25 6.625 -0.25 10 2 C10 2.66 10 3.32 10 4 C8.68 4 7.36 4 6 4 C5.67 3.34 5.34 2.68 5 2 C3.35 2 1.7 2 0 2 C0 1.34 0 0.68 0 0 Z " fill="#1D1E20" transform="translate(1401,584)"/>
<path d="M0 0 C0.99 0.33 1.98 0.66 3 1 C3.6875 3.0625 3.6875 3.0625 4 5 C2.02 5.33 0.04 5.66 -2 6 C-1.34 4.02 -0.68 2.04 0 0 Z " fill="#E4E5E6" transform="translate(769,543)"/>
<path d="M0 0 C1.32 0.66 2.64 1.32 4 2 C4 2.99 4 3.98 4 5 C1.36 4.34 -1.28 3.68 -4 3 C-2.68 2.01 -1.36 1.02 0 0 Z " fill="#272729" transform="translate(580,499)"/>
<path d="M0 0 C1.98 0 3.96 0 6 0 C1.375 4 1.375 4 -2 4 C-1.34 2.68 -0.68 1.36 0 0 Z " fill="#191A1C" transform="translate(386,497)"/>
<path d="M0 0 C2.64 0.33 5.28 0.66 8 1 C8 2.32 8 3.64 8 5 C4.62496331 3.8141763 2.35277269 2.72426311 0 0 Z " fill="#C8C9CA" transform="translate(354,465)"/>
<path d="M0 0 C1.33333333 2.66666667 2.66666667 5.33333333 4 8 C2.02 7.01 0.04 6.02 -2 5 C-1 2 -1 2 0 0 Z " fill="#D2D3D4" transform="translate(515,576)"/>
<path d="M0 0 C0.99 0 1.98 0 3 0 C3.33 1.65 3.66 3.3 4 5 C3.34 5 2.68 5 2 5 C1.67 5.66 1.34 6.32 1 7 C0.67 4.69 0.34 2.38 0 0 Z " fill="#EAEAEA" transform="translate(1355,576)"/>
<path d="M0 0 C0.66 0.66 1.32 1.32 2 2 C1.38125 2.4125 0.7625 2.825 0.125 3.25 C-2.06768281 5.05573879 -2.92788417 6.4090534 -4 9 C-4.66 9 -5.32 9 -6 9 C-4.68775452 5.06326356 -3.08089673 2.77280706 0 0 Z " fill="#DBDCDD" transform="translate(1093,535)"/>
<path d="M0 0 C0 0.66 0 1.32 0 2 C-3.47325181 3.1577506 -6.36067448 3.06866652 -10 3 C-6.84916414 -0.15083586 -4.41812253 0 0 0 Z " fill="#E0E1E2" transform="translate(335,532)"/>
<path d="M0 0 C2.0625 0.4375 2.0625 0.4375 4 1 C2.71034824 2.37562854 1.37310707 3.70766393 0 5 C-0.66 5 -1.32 5 -2 5 C-1.125 1.125 -1.125 1.125 0 0 Z " fill="#0E0F11" transform="translate(330,529)"/>
<path d="M0 0 C2.97 1.98 2.97 1.98 6 4 C4.02 4.99 4.02 4.99 2 6 C1.34 5.34 0.68 4.68 0 4 C0 2.68 0 1.36 0 0 Z " fill="#1A1A1C" transform="translate(713,521)"/>
<path d="M0 0 C0 0.66 0 1.32 0 2 C-0.99 2.33 -1.98 2.66 -3 3 C-2.34 3.66 -1.68 4.32 -1 5 C-2.8125 5.625 -2.8125 5.625 -5 6 C-5.99 5.34 -6.98 4.68 -8 4 C-2.25 0 -2.25 0 0 0 Z " fill="#D3D4D6" transform="translate(392,498)"/>
<path d="M0 0 C2.875 0.25 2.875 0.25 6 1 C7.375 3.0625 7.375 3.0625 8 5 C6.02 4.34 4.04 3.68 2 3 C2 2.34 2 1.68 2 1 C1.34 0.67 0.68 0.34 0 0 Z " fill="#D6D7D8" transform="translate(384,482)"/>
<path d="M0 0 C2.91517292 1.07401108 4.77810176 1.77810176 7 4 C5.35 4.33 3.7 4.66 2 5 C1.34 3.35 0.68 1.7 0 0 Z " fill="#363739" transform="translate(341,458)"/>
<path d="M0 0 C0.763125 0.20625 1.52625 0.4125 2.3125 0.625 C1.3225 2.11 1.3225 2.11 0.3125 3.625 C-1.6675 2.965 -3.6475 2.305 -5.6875 1.625 C-2.6875 -0.375 -2.6875 -0.375 0 0 Z " fill="#191A1C" transform="translate(269.6875,625.375)"/>
<path d="M0 0 C2.5 1.3125 2.5 1.3125 5 3 C5 3.99 5 4.98 5 6 C1.83884224 4.63016497 1.0072908 4.0109362 -1 1 C-0.67 0.67 -0.34 0.34 0 0 Z " fill="#1B1B1D" transform="translate(1288,601)"/>
<path d="M0 0 C0.33 0.99 0.66 1.98 1 3 C1.66 3.165 2.32 3.33 3 3.5 C3.66 3.665 4.32 3.83 5 4 C5.33 4.99 5.66 5.98 6 7 C5.01 7 4.02 7 3 7 C0.8125 4.5 0.8125 4.5 -1 2 C-0.67 1.34 -0.34 0.68 0 0 Z " fill="#1A1A1C" transform="translate(1345,593)"/>
<path d="M0 0 C0.66 0.33 1.32 0.66 2 1 C1.01 2.32 0.02 3.64 -1 5 C-3.64 4.67 -6.28 4.34 -9 4 C-9 3.67 -9 3.34 -9 3 C-8.43410156 2.86722656 -7.86820313 2.73445312 -7.28515625 2.59765625 C-6.18494141 2.33275391 -6.18494141 2.33275391 -5.0625 2.0625 C-4.33160156 1.88847656 -3.60070313 1.71445312 -2.84765625 1.53515625 C-1.00030102 1.16112431 -1.00030102 1.16112431 0 0 Z " fill="#303132" transform="translate(1393,593)"/>
<path d="M0 0 C0.66 0 1.32 0 2 0 C2.33 1.98 2.66 3.96 3 6 C2.01 5.67 1.02 5.34 0 5 C-0.75 3 -0.75 3 -1 1 C-0.67 0.67 -0.34 0.34 0 0 Z " fill="#F4F4F4" transform="translate(1044,592)"/>
<path d="M0 0 C2.3431213 0.25561323 4.67843403 0.59270772 7 1 C7.33 1.66 7.66 2.32 8 3 C6.25 3.75 6.25 3.75 4 4 C1.75 2.0625 1.75 2.0625 0 0 Z " fill="#242426" transform="translate(212,593)"/>
<path d="M0 0 C0.99 0 1.98 0 3 0 C3.33 1.65 3.66 3.3 4 5 C3.01 5.33 2.02 5.66 1 6 C0 5 0 5 -0.0625 2.4375 C-0.041875 1.633125 -0.02125 0.82875 0 0 Z " fill="#DADADA" transform="translate(1300,584)"/>
<path d="M0 0 C1.37562854 1.28965176 2.70766393 2.62689293 4 4 C4 4.66 4 5.32 4 6 C3.01 6.33 2.02 6.66 1 7 C0.67 4.69 0.34 2.38 0 0 Z " fill="#111111" transform="translate(708,537)"/>
<path d="M0 0 C0.99 0.33 1.98 0.66 3 1 C3 1.66 3 2.32 3 3 C3.66 3 4.32 3 5 3 C5.33 3.99 5.66 4.98 6 6 C5.01 6.99 4.02 7.98 3 9 C1.78666603 6.57333205 2 4.66500278 2 2 C1.34 2 0.68 2 0 2 C0 1.34 0 0.68 0 0 Z " fill="#1F1F21" transform="translate(919,520)"/>
<path d="M0 0 C0 0.99 0 1.98 0 3 C-2.64 2.67 -5.28 2.34 -8 2 C-5.44123378 -0.55876622 -3.37797483 -1.68898741 0 0 Z " fill="#292A2C" transform="translate(686,516)"/>
<path d="M0 0 C0.66 0.33 1.32 0.66 2 1 C2 2.65 2 4.3 2 6 C0.02 5.34 -1.96 4.68 -4 4 C-2.68 2.68 -1.36 1.36 0 0 Z " fill="#D7D8DA" transform="translate(918,514)"/>
<path d="M0 0 C0.66 0.33 1.32 0.66 2 1 C-1.75 5.875 -1.75 5.875 -4 7 C-4 6.34 -4 5.68 -4 5 C-4.66 4.67 -5.32 4.34 -6 4 C-4.02 2.68 -2.04 1.36 0 0 Z " fill="#282929" transform="translate(216,509)"/>
<path d="M0 0 C0 3 0 3 -2 6 C-4.625 6.1875 -4.625 6.1875 -7 6 C-4.74259377 3.66475218 -2.7194239 1.81294927 0 0 Z " fill="#2A2B2C" transform="translate(225,503)"/>
<path d="M0 0 C0.66 0.33 1.32 0.66 2 1 C0.68 2.32 -0.64 3.64 -2 5 C-3.32 4.34 -4.64 3.68 -6 3 C-4.03533587 1.93224776 -2.03144641 0.93446535 0 0 Z " fill="#1A1B1C" transform="translate(256,483)"/>
</svg>
