<?xml version="1.0" encoding="UTF-8"?>
<svg version="1.1" xmlns="http://www.w3.org/2000/svg" width="225" height="225">
<path d="M0 0 C74.25 0 148.5 0 225 0 C225 74.25 225 148.5 225 225 C150.75 225 76.5 225 0 225 C0 150.75 0 76.5 0 0 Z " fill="#2E7DEB" transform="translate(0,0)"/>
<path d="M0 0 C3.36876463 1.16302589 4.7072318 2.75798615 7 5.46875 C7.77601562 6.37238281 8.55203125 7.27601562 9.3515625 8.20703125 C10.10179688 9.09777344 10.85203125 9.98851563 11.625 10.90625 C12.87245017 12.32516244 14.12219789 13.74206072 15.375 15.15625 C17.34416177 17.40387909 19.04904296 19.53812136 20.72363281 22.03344727 C23.07502871 24.83751004 23.44516021 24.88667934 27.3828125 25.31518555 C28.8414993 25.19327409 30.29764642 25.03794793 31.75 24.85546875 C33.36584587 24.70838646 34.98173272 24.56175386 36.59765625 24.41552734 C37.84313232 24.28594635 37.84313232 24.28594635 39.11376953 24.15374756 C43.13156616 23.75776843 47.15759056 23.53483588 51.1875 23.30078125 C52.76045084 23.2043317 54.33336776 23.10732749 55.90625 23.00976562 C56.68097656 22.96247314 57.45570313 22.91518066 58.25390625 22.86645508 C59.86350778 22.76618645 61.47288231 22.6622189 63.08203125 22.55493164 C65.45002813 22.39796215 67.81850589 22.254283 70.1875 22.11328125 C71.26849976 22.03688164 71.26849976 22.03688164 72.37133789 21.9589386 C74.1199269 21.8613739 75.87398364 21.87424812 77.625 21.90625 C78.615 22.89625 78.615 22.89625 79.625 23.90625 C79.53904422 30.23572117 77.11855688 33.58397258 73.3125 38.28125 C72.21127343 39.69224308 71.11238559 41.10506399 70.015625 42.51953125 C69.45166016 43.24221191 68.88769531 43.96489258 68.30664062 44.70947266 C65.61836048 48.22125326 63.09106736 51.84113084 60.5625 55.46875 C56.59412211 61.13291538 52.58439351 66.76253643 48.5 72.34375 C48.03843506 72.97676025 47.57687012 73.60977051 47.10131836 74.26196289 C45.37336345 76.61459741 43.69237575 78.83887425 41.625 80.90625 C38.95876768 81.1466607 36.3929158 81.26263359 33.72216797 81.29199219 C32.49742516 81.31652466 32.49742516 81.31652466 31.24794006 81.34155273 C28.53771912 81.39129409 25.82770841 81.42430582 23.1171875 81.453125 C22.19123905 81.46377235 21.2652906 81.47441971 20.31128311 81.48538971 C15.4067745 81.53887677 10.50236793 81.57761185 5.59765625 81.60644531 C0.53933364 81.63968575 -4.51636802 81.72917583 -9.57370186 81.8311882 C-13.46862635 81.89863997 -17.36293413 81.92161103 -21.25838852 81.93289948 C-23.12200748 81.94630406 -24.98558726 81.97669802 -26.84863663 82.02468109 C-41.41210249 82.37825009 -41.41210249 82.37825009 -46.23104858 78.76446533 C-48.28332943 76.23268562 -49.83269181 73.76970521 -51.375 70.90625 C-52.44565006 69.41733736 -53.53370666 67.94057813 -54.6484375 66.484375 C-55.68506097 65.04365519 -56.7188817 63.60091496 -57.75 62.15625 C-58.30381348 61.38474609 -58.85762695 60.61324219 -59.42822266 59.81835938 C-61.07976357 57.51618263 -62.72760226 55.21139253 -64.375 52.90625 C-65.31230723 51.59882011 -66.24979501 50.29151964 -67.1875 48.984375 C-68.84523448 46.67264632 -70.4956445 44.35597351 -72.140625 42.03515625 C-73.58876291 40.00725684 -75.0564674 37.99313271 -76.546875 35.99609375 C-77.19140625 35.12082031 -77.8359375 34.24554688 -78.5 33.34375 C-79.05945313 32.59996094 -79.61890625 31.85617188 -80.1953125 31.08984375 C-81.61424521 28.46340871 -81.75713127 26.85062042 -81.375 23.90625 C-79.375 21.90625 -79.375 21.90625 -76.375 21.859375 C-75.04089505 21.94732101 -73.7075579 22.04734647 -72.375 22.15625 C-71.64458496 22.2070874 -70.91416992 22.2579248 -70.16162109 22.31030273 C-67.56487738 22.49532935 -64.97006915 22.69905795 -62.375 22.90625 C-61.32860352 22.98955566 -60.28220703 23.07286133 -59.20410156 23.15869141 C-58.09776367 23.24683105 -56.99142578 23.3349707 -55.8515625 23.42578125 C-54.15386719 23.55968262 -54.15386719 23.55968262 -52.421875 23.69628906 C-50.18968335 23.8740235 -47.95788062 24.05673323 -45.7265625 24.24511719 C-42.61068631 24.4980912 -39.4948459 24.70888627 -36.375 24.90625 C-35.37404297 24.9892334 -34.37308594 25.0722168 -33.34179688 25.15771484 C-28.46873934 25.41155415 -26.19032219 25.49706318 -22.140625 22.5625 C-21.26975069 21.53701992 -20.43132577 20.48322271 -19.625 19.40625 C-19.17237793 18.85960693 -18.71975586 18.31296387 -18.25341797 17.74975586 C-17.35151036 16.65747409 -16.46219909 15.55464726 -15.58691406 14.44091797 C-13.96347864 12.3851333 -12.23765157 10.42830946 -10.5 8.46875 C-8.23465156 5.89091659 -8.23465156 5.89091659 -6.015625 3.2734375 C-3.01255732 -0.11891674 -3.01255732 -0.11891674 0 0 Z " fill="#F7F9FE" transform="translate(113.375,72.09375)"/>
<path d="M0 0 C-0.34144043 0.47195801 -0.68288086 0.94391602 -1.03466797 1.43017578 C-2.06195077 2.85047599 -3.08894186 4.27098722 -4.11572266 5.69165039 C-5.29420953 7.32167797 -6.47358018 8.95106693 -7.65380859 10.57983398 C-10.46067095 14.45878827 -13.25302442 18.34475633 -15.984375 22.27734375 C-16.65750732 23.24099854 -16.65750732 23.24099854 -17.34423828 24.22412109 C-18.18230803 25.42706909 -19.01428223 26.63429251 -19.83935547 27.84619141 C-22.66575415 31.88858472 -22.66575415 31.88858472 -26 33 C-28.50292587 32.24559909 -30.8650159 31.42204292 -33.29296875 30.47265625 C-33.99899734 30.20488876 -34.70502594 29.93712128 -35.43244934 29.66123962 C-37.68755877 28.8036751 -39.93746746 27.93328683 -42.1875 27.0625 C-43.71516997 26.47896663 -45.24316128 25.89627376 -46.77148438 25.31445312 C-50.51812181 23.8860296 -54.26014591 22.44608534 -58 21 C-55.70885784 18.70885784 -53.97370624 18.07207701 -50.95532227 16.92114258 C-49.37842369 16.31590508 -49.37842369 16.31590508 -47.76966858 15.69844055 C-46.63009201 15.26815048 -45.49051544 14.83786041 -44.31640625 14.39453125 C-43.14996078 13.95106857 -41.98351532 13.5076059 -40.78172302 13.05070496 C-38.31212903 12.11404427 -35.84174878 11.17985082 -33.36987305 10.24926758 C-30.20057959 9.05544068 -27.03659282 7.84818707 -23.87379551 6.63727283 C-20.85787631 5.48536429 -17.83685889 4.34698866 -14.81640625 3.20703125 C-13.67885391 2.77066849 -12.54130157 2.33430573 -11.36927795 1.88471985 C-10.31486008 1.49068466 -9.2604422 1.09664948 -8.17407227 0.69067383 C-7.2452272 0.33918777 -6.31638214 -0.01229828 -5.35939026 -0.37443542 C-3 -1 -3 -1 0 0 Z " fill="#2F7DEB" transform="translate(177,109)"/>
<path d="M0 0 C7.29686576 2.07582282 14.38426039 4.54335545 21.4765625 7.23046875 C22.52782318 7.62575272 23.57908386 8.02103668 24.66220093 8.42829895 C27.98431578 9.67825421 31.30467597 10.93279646 34.625 12.1875 C36.89181219 13.04132071 39.15873821 13.89483929 41.42578125 14.74804688 C46.95184128 16.82854092 52.47647226 18.91279289 58 21 C53.26223652 24.15850899 47.89681011 25.92442361 42.60327148 27.96044922 C41.24188733 28.48715293 39.88313269 29.02070387 38.52709961 29.56103516 C36.56654067 30.34221579 34.59910872 31.10290028 32.62890625 31.859375 C31.45400635 32.31795898 30.27910645 32.77654297 29.06860352 33.24902344 C26 34 26 34 23.75219727 33.34765625 C21.86243096 31.89419241 20.67894092 30.54579321 19.3359375 28.578125 C18.61905762 27.54365234 18.61905762 27.54365234 17.88769531 26.48828125 C17.38850586 25.74964844 16.88931641 25.01101562 16.375 24.25 C15.31563974 22.71317235 14.25573453 21.17672021 13.1953125 19.640625 C12.66454102 18.86654297 12.13376953 18.09246094 11.58691406 17.29492188 C8.769246 13.22014036 5.85631551 9.21357379 2.94677734 5.20410156 C0 1.10858051 0 1.10858051 0 0 Z " fill="#2E7DEB" transform="translate(48,108)"/>
<path d="M0 0 C9.54610661 9.54610661 18.62908172 19.4011629 27 30 C25.55171842 32.89656315 23.72697742 33.04880907 20.72265625 34.1640625 C19.65208984 34.56367187 18.58152344 34.96328125 17.47851562 35.375 C16.35123047 35.7875 15.22394531 36.2 14.0625 36.625 C12.37737305 37.25535156 12.37737305 37.25535156 10.65820312 37.8984375 C2.28499138 41 2.28499138 41 0 41 C0 27.47 0 13.94 0 0 Z " fill="#2D7CEA" transform="translate(115,85)"/>
<path d="M0 0 C0 13.2 0 26.4 0 40 C-6.3367489 38.09897533 -12.47462509 36.17578448 -18.625 33.8125 C-19.70201172 33.40354492 -19.70201172 33.40354492 -20.80078125 32.98632812 C-22.53503294 32.32731248 -24.267697 31.66412113 -26 31 C-26 27.04217714 -24.75270073 26.33275838 -22.0625 23.5 C-18.68641823 19.8695196 -15.47539657 16.18132533 -12.375 12.3125 C-2.40607244 0 -2.40607244 0 0 0 Z " fill="#2D7CEA" transform="translate(110,86)"/>
<path d="M0 0 C0 3.96 0 7.92 0 12 C-10.23 12 -20.46 12 -31 12 C-28.5029626 9.5029626 -26.28355604 8.83926913 -22.96875 7.6171875 C-21.76605469 7.17246094 -20.56335938 6.72773438 -19.32421875 6.26953125 C-18.69692871 6.04088379 -18.06963867 5.81223633 -17.42333984 5.57666016 C-15.5049525 4.87680674 -13.5902117 4.1676277 -11.67578125 3.45703125 C-2.2722531 0 -2.2722531 0 0 0 Z " fill="#2E7DEB" transform="translate(110,133)"/>
<path d="M0 0 C7.19195932 2.0688304 14.15091536 4.47916516 21.125 7.1875 C22.08148438 7.55552734 23.03796875 7.92355469 24.0234375 8.30273438 C26.35024289 9.19855445 28.67571021 10.09767773 31 11 C31 11.33 31 11.66 31 12 C20.77 12 10.54 12 0 12 C0 8.04 0 4.08 0 0 Z " fill="#2C7CEA" transform="translate(115,133)"/>
<path d="M0 0 C-3.06591038 3.06591038 -6.88560965 4.17047612 -10.875 5.75 C-11.69097656 6.09160156 -12.50695312 6.43320313 -13.34765625 6.78515625 C-14.13785156 7.09839844 -14.92804688 7.41164063 -15.7421875 7.734375 C-16.82282471 8.17088379 -16.82282471 8.17088379 -17.92529297 8.61621094 C-20.63078889 9.1166863 -21.72967526 8.48307836 -24 7 C-27 3.57142857 -27 3.57142857 -27 1 C-17.97582223 0.30962574 -9.05638678 -0.15178302 0 0 Z " fill="#3381EB" transform="translate(172,104)"/>
<path d="M0 0 C9.13338455 -0.28994872 17.96301675 0.8258212 27 2 C25.35 4.31 23.7 6.62 22 9 C14.39162534 6.92957946 7.2271408 4.14169523 0 1 C0 0.67 0 0.34 0 0 Z " fill="#2B7CEA" transform="translate(53,104)"/>
<path d="M0 0 C3.3 0 6.6 0 10 0 C9.34 1.32 8.68 2.64 8 4 C5.36 3.01 2.72 2.02 0 1 C0 0.67 0 0.34 0 0 Z " fill="#3783EC" transform="translate(53,104)"/>
</svg>
