<?xml version="1.0" encoding="UTF-8"?>
<svg version="1.1" xmlns="http://www.w3.org/2000/svg" width="960" height="960">
<path d="M0 0 C316.8 0 633.6 0 960 0 C960 316.8 960 633.6 960 960 C643.2 960 326.4 960 0 960 C0 643.2 0 326.4 0 0 Z " fill="#3178C6" transform="translate(0,0)"/>
<path d="M0 0 C1.14871582 0.1453418 2.29743164 0.29068359 3.48095703 0.44042969 C7.24426982 0.94087287 10.9967319 1.49178926 14.75 2.0625 C15.84207764 2.2174292 16.93415527 2.3723584 18.05932617 2.53198242 C32.2748581 4.87978964 44.95773216 9.64205481 59 14 C59 43.04 59 72.08 59 102 C48 96 48 96 44.234375 93.9453125 C17.34919891 79.89991782 -12.16573181 73.54168658 -42.375 73.625 C-43.4495192 73.62531723 -43.4495192 73.62531723 -44.54574585 73.62564087 C-64.16870874 73.68325187 -81.85601202 77.15885179 -98 89 C-99.3303125 89.86625 -99.3303125 89.86625 -100.6875 90.75 C-107.30601269 97.18963397 -110.99989044 105.5559266 -111.375 114.6875 C-111.09908553 127.80155263 -104.66483612 136.70053941 -95.5 145.5 C-80.41445696 158.60599214 -60.47195769 167.21125752 -42.21789551 174.88812256 C-38.17056741 176.59294327 -34.13615355 178.32779604 -30.1015625 180.0625 C-29.31068237 180.40231903 -28.51980225 180.74213806 -27.70495605 181.09225464 C-0.99496894 192.60343309 23.93205772 205.713465 45 226 C45.79019531 226.71542969 46.58039063 227.43085937 47.39453125 228.16796875 C65.89104889 245.43354476 76.25547379 271.5348052 77.12255859 296.53344727 C77.20625472 300.56481066 77.24655665 304.59289855 77.25 308.625 C77.25067474 309.33720703 77.25134949 310.04941406 77.25204468 310.78320312 C77.2364333 321.15732675 76.84140241 330.93527339 74 341 C73.82839355 341.64743164 73.65678711 342.29486328 73.47998047 342.96191406 C66.03806529 370.82753033 47.97965879 394.29055175 23.02929688 408.86181641 C2.98660252 420.10327948 -18.79847976 426.5942732 -41.4375 430.125 C-42.46681641 430.29386719 -43.49613281 430.46273438 -44.55664062 430.63671875 C-58.96905507 432.92326046 -73.25549754 433.20306529 -87.8125 433.1875 C-88.76675873 433.18722809 -89.72101746 433.18695618 -90.70419312 433.18667603 C-105.23201742 433.16764321 -119.56271444 432.7203499 -134 431 C-135.77991384 430.81477639 -137.55986217 430.62988399 -139.33984375 430.4453125 C-163.98099639 427.68735689 -187.81921851 421.09039075 -210 410 C-210 378.98 -210 347.96 -210 316 C-206.35404152 318.43063898 -202.82054445 320.85013305 -199.30957031 323.44970703 C-176.46441407 340.23593053 -149.96076124 351.37053186 -122 356 C-120.3603125 356.30744141 -120.3603125 356.30744141 -118.6875 356.62109375 C-92.12565799 360.9977609 -60.15540389 360.01479522 -37.375 344 C-30.77660965 338.4916521 -24.77811181 331.84270854 -23.77246094 322.99902344 C-22.78695759 308.8734754 -25.11685586 299.49029395 -34.5234375 288.59765625 C-53.5869255 268.60204187 -83.53580143 258.06856668 -108.46313477 247.58056641 C-146.45371395 231.55767952 -185.54538994 209.99214992 -202.69140625 170.30859375 C-208.82619897 154.79764021 -211.36050692 140.17229119 -211.26074219 123.50390625 C-211.24997227 121.36950532 -211.26073869 119.23593904 -211.2734375 117.1015625 C-211.28673992 105.72528319 -210.06440684 94.99316914 -206.375 84.1875 C-206.11485107 83.42469727 -205.85470215 82.66189453 -205.58666992 81.87597656 C-194.89600025 51.7252166 -171.55062629 30.48847347 -143.39453125 16.5078125 C-99.9574 -4.18544658 -47.04771177 -5.99912287 0 0 Z " fill="#FEFEFE" transform="translate(804,448)"/>
<path d="M0 0 C110.88 0 221.76 0 336 0 C336 25.41 336 50.82 336 77 C296.4 77 256.8 77 216 77 C216 190.19 216 303.38 216 420 C184.32 420 152.64 420 120 420 C120 306.81 120 193.62 120 77 C80.4 77 40.8 77 0 77 C0 51.59 0 26.18 0 0 Z " fill="#FDFEFE" transform="translate(221,456)"/>
<path d="M0 0 C0.33 0 0.66 0 1 0 C1 26.4 1 52.8 1 80 C-25.4 80 -51.8 80 -79 80 C-79 79.67 -79 79.34 -79 79 C-77.9584375 78.79246094 -76.916875 78.58492187 -75.84375 78.37109375 C-51.01884725 73.15432986 -29.17673785 60.59323784 -14.84301758 39.14648438 C-7.10156803 26.92547345 -2.5032394 14.25089801 0 0 Z " fill="#000000" transform="translate(959,880)"/>
<path d="M0 0 C0.33 0 0.66 0 1 0 C1.20753906 1.0415625 1.41507812 2.083125 1.62890625 3.15625 C6.84567014 27.98115275 19.40676216 49.82326215 40.85351562 64.15698242 C53.07452655 71.89843197 65.74910199 76.4967606 80 79 C80 79.33 80 79.66 80 80 C53.6 80 27.2 80 0 80 C0 53.6 0 27.2 0 0 Z " fill="#000000" transform="translate(0,880)"/>
<path d="M0 0 C26.4 0 52.8 0 80 0 C80 26.4 80 52.8 80 80 C79.67 80 79.34 80 79 80 C78.79246094 78.9584375 78.58492187 77.916875 78.37109375 76.84375 C73.2047041 52.25856207 60.84002782 30.68231128 39.81225586 16.20117188 C27.43589808 8.14712797 14.34021325 3.95137561 0 1 C0 0.67 0 0.34 0 0 Z " fill="#000000" transform="translate(880,0)"/>
<path d="M0 0 C26.4 0 52.8 0 80 0 C80 0.33 80 0.66 80 1 C78.9584375 1.20753906 77.916875 1.41507812 76.84375 1.62890625 C59.31961319 5.31146989 43.0329442 11.83969826 30.23046875 24.8046875 C28 27 28 27 26 27 C25.72414063 27.59941406 25.44828125 28.19882812 25.1640625 28.81640625 C24 31 24 31 21.375 33.9375 C9.89300531 47.12779146 3.98312144 63.01714195 1 80 C0.67 80 0.34 80 0 80 C0 53.6 0 27.2 0 0 Z " fill="#000000" transform="translate(0,0)"/>
</svg>
